<?xml version="1.0" encoding="UTF-8" standalone="no"?>
<svg width="249px" height="121px" viewBox="0 0 249 121" version="1.1" xmlns="http://www.w3.org/2000/svg" xmlns:xlink="http://www.w3.org/1999/xlink" xmlns:sketch="http://www.bohemiancoding.com/sketch/ns">
    <!-- Generator: Sketch 3.3.2 (12043) - http://www.bohemiancoding.com/sketch -->
    <title>icon_google_mobile</title>
    <desc>Created with Sketch.</desc>
    <defs></defs>
    <g id="Page-1" stroke="none" stroke-width="1" fill="none" fill-rule="evenodd" sketch:type="MSPage">
        <g id="setak-web-button" sketch:type="MSLayerGroup" transform="translate(-177.000000, -927.000000)">
            <g id="icon_google_mobile" transform="translate(177.000000, 927.000000)">
                <g id="icon_google" sketch:type="MSShapeGroup">
                    <circle id="Oval" opacity="0.7" fill="#ED1732" cx="60.7" cy="60.8" r="59.9"></circle>
                    <g id="Group" transform="translate(34.000000, 24.000000)" fill="#FFFFFF">
                        <path d="M1,70.5 L35.1,36.6 L1.6,3.4 C0.9,3.6 0.4,4.2 0.4,5.2 L0.4,36.6 L0.4,68.6 C0.4,69.4 0.4,70.4 1,70.5 L1,70.5 Z" id="Shape"></path>
                        <path d="M6,0.5 L38.8,33 L47.8,24.1 L33.8,16 L7.8,0.7 C7.2,0.4 6.6,0.3 6,0.5 L6,0.5 Z" id="Shape"></path>
                        <path d="M5.1,73.8 C5.5,73.9 6,73.9 6.6,73.5 L10.4,71.3 C18,66.9 34.2,57.5 34.2,57.5 L48.2,49.4 L38.9,40.2 L5.1,73.8 L5.1,73.8 Z" id="Shape"></path>
                        <path d="M53.8,44.7 C54.5,44.3 55.3,43.8 56.2,43.3 L56.2,43.3 C57.3,42.7 58.5,42 59.6,41.3 L65.2,38 C66.8,37.1 66.6,35.8 65.3,35.1 C64,34.4 51.8,27.3 51.8,27.3 L42.5,36.5 L51.8,45.7 L51.9,45.6 C52.1,45.5 52.5,45.2 53.2,44.9 L53.8,44.7 L53.8,44.7 Z" id="Shape"></path>
                    </g>
                </g>
                <path d="M207.5,0.9 L60.7,0.9 C93.8,0.9 120.6,27.7 120.6,60.8 C120.6,93.9 93.8,120.7 60.7,120.7 L207.5,120.7 C230.4,120.7 249,102.1 249,79.2 L249,42.4 C249,19.5 230.4,0.9 207.5,0.9 L207.5,0.9 Z" id="Shape" opacity="0.8" fill="#FFFFFF" sketch:type="MSShapeGroup"></path>
                <text id="구글플레이" fill="#ED174C" sketch:type="MSTextLayer" font-family="Apple SD Gothic Neo" font-size="21" font-weight="normal">
                    <tspan x="130.6147" y="69.4102" fill="#000000">구글플레이</tspan>
                </text>
            </g>
        </g>
    </g>
</svg>