<?xml version="1.0" encoding="UTF-8" standalone="no"?>
<svg width="249px" height="121px" viewBox="0 0 249 121" version="1.1" xmlns="http://www.w3.org/2000/svg" xmlns:xlink="http://www.w3.org/1999/xlink" xmlns:sketch="http://www.bohemiancoding.com/sketch/ns">
    <!-- Generator: Sketch 3.3.2 (12043) - http://www.bohemiancoding.com/sketch -->
    <title>icon_online_mobile</title>
    <desc>Created with Sketch.</desc>
    <defs></defs>
    <g id="Page-1" stroke="none" stroke-width="1" fill="none" fill-rule="evenodd" sketch:type="MSPage">
        <g id="setak-web-button" sketch:type="MSLayerGroup" transform="translate(-177.000000, -749.000000)">
            <g id="icon_online_mobile" transform="translate(177.000000, 749.000000)">
                <path d="M207.5,0.3 L60.7,0.3 C93.8,0.3 120.6,27.1 120.6,60.2 C120.6,93.3 93.8,120.1 60.7,120.1 L207.5,120.1 C230.4,120.1 249,101.5 249,78.6 L249,41.8 C249,18.9 230.4,0.3 207.5,0.3 L207.5,0.3 Z" id="Shape" opacity="0.8" fill="#FFFFFF" sketch:type="MSShapeGroup"></path>
                <text id="온라인예약" fill="#ED174C" sketch:type="MSTextLayer" font-family="Apple SD Gothic Neo" font-size="21" font-weight="normal">
                    <tspan x="130.6147" y="68.7783" fill="#000000">온라인예약</tspan>
                </text>
                <g id="icon_online" sketch:type="MSShapeGroup">
                    <circle id="Oval" opacity="0.7" fill="#ED1732" cx="60.7" cy="60.2" r="59.9"></circle>
                    <g id="Group" transform="translate(35.000000, 26.000000)" stroke="#FFFFFF" stroke-width="5">
                        <path d="M25.7,59.6 L50.4,32.4 L36.4,32.4 L36.4,0 L15,0 L15,32.4 L0.9,32.4 L25.7,59.6 Z" id="Shape"></path>
                        <path d="M0.9,67.2 L50.4,67.2" id="Shape"></path>
                    </g>
                </g>
            </g>
        </g>
    </g>
</svg>