<?xml version="1.0" encoding="UTF-8" standalone="no"?>
<svg width="121px" height="121px" viewBox="0 0 121 121" version="1.1" xmlns="http://www.w3.org/2000/svg" xmlns:xlink="http://www.w3.org/1999/xlink" xmlns:sketch="http://www.bohemiancoding.com/sketch/ns">
    <!-- Generator: Sketch 3.3.2 (12043) - http://www.bohemiancoding.com/sketch -->
    <title>icon_iphone</title>
    <desc>Created with Sketch.</desc>
    <defs></defs>
    <g id="Page-1" stroke="none" stroke-width="1" fill="none" fill-rule="evenodd" sketch:type="MSPage">
        <g id="setak-web-button" sketch:type="MSLayerGroup" transform="translate(-177.000000, -1106.000000)">
            <g id="icon_iphone" transform="translate(177.000000, 1106.000000)" sketch:type="MSShapeGroup">
                <circle id="Oval" opacity="0.7" fill="#ED1732" cx="60.7" cy="60.4" r="59.9"></circle>
                <path d="M87.8,45.1 C84.3,40.7 79.4,38.2 74.8,38.2 C68.7,38.2 66.1,41.1 61.8,41.1 C57.4,41.1 54.1,38.2 48.8,38.2 C43.6,38.2 38.1,41.4 34.6,46.8 C29.7,54.4 30.5,68.7 38.5,80.9 C41.4,85.3 45.2,90.1 50.2,90.2 C54.6,90.2 55.9,87.4 61.9,87.3 C67.9,87.3 69.1,90.2 73.5,90.2 C78.5,90.2 82.5,84.7 85.4,80.4 C87.5,77.3 88.2,75.7 89.8,72.2 C78.3,67.7 76.4,51.3 87.8,45.1 L87.8,45.1 Z M70.2,33.3 C72.4,30.4 74.1,26.4 73.5,22.3 C69.9,22.6 65.6,24.9 63.1,27.9 C60.8,30.6 59,34.7 59.7,38.6 C63.7,38.8 67.8,36.4 70.2,33.3 L70.2,33.3 Z" id="Shape" fill="#FFFFFF"></path>
            </g>
        </g>
    </g>
</svg>