<?xml version="1.0" encoding="UTF-8" standalone="no"?>
<svg width="249px" height="121px" viewBox="0 0 249 121" version="1.1" xmlns="http://www.w3.org/2000/svg" xmlns:xlink="http://www.w3.org/1999/xlink" xmlns:sketch="http://www.bohemiancoding.com/sketch/ns">
    <!-- Generator: Sketch 3.3.2 (12043) - http://www.bohemiancoding.com/sketch -->
    <title>icon_sms_mobile</title>
    <desc>Created with Sketch.</desc>
    <defs></defs>
    <g id="Page-1" stroke="none" stroke-width="1" fill="none" fill-rule="evenodd" sketch:type="MSPage">
        <g id="setak-web-button" sketch:type="MSLayerGroup" transform="translate(-177.000000, -570.000000)">
            <g id="icon_sms_mobile" transform="translate(177.000000, 570.000000)">
                <g id="icon_sms" sketch:type="MSShapeGroup">
                    <circle id="Oval" opacity="0.7" fill="#ED1732" cx="60.7" cy="60.5" r="59.9"></circle>
                    <path d="M62.3,31.4 C44.4,31.4 29.8,43 29.8,57.4 C29.8,67.4 36.9,76.2 47.3,80.5 C45.1,88.3 39.7,93.6 39.7,93.6 C47.5,92.3 56.6,87.8 59.5,83.4 L62.2,83.4 C80.1,83.4 94.7,71.8 94.7,57.4 C94.8,43 80.2,31.4 62.3,31.4 L62.3,31.4 Z" id="Shape" stroke="#FFFFFF" stroke-width="5"></path>
                </g>
                <path d="M207.5,0.6 L60.7,0.6 C93.8,0.6 120.6,27.4 120.6,60.5 C120.6,93.6 93.8,120.4 60.7,120.4 L207.5,120.4 C230.4,120.4 249,101.8 249,78.9 L249,42.1 C249,19.2 230.4,0.6 207.5,0.6 L207.5,0.6 Z" id="Shape" opacity="0.8" fill="#FFFFFF" sketch:type="MSShapeGroup"></path>
                <text id="문자예약" fill="#ED174C" sketch:type="MSTextLayer" font-family="Apple SD Gothic Neo" font-size="26" font-weight="normal">
                    <tspan x="130.6147" y="69.1465" fill="#000000">문자예약</tspan>
                </text>
            </g>
        </g>
    </g>
</svg>