<?xml version="1.0" encoding="UTF-8" standalone="no"?>
<svg width="249px" height="120px" viewBox="0 0 249 120" version="1.1" xmlns="http://www.w3.org/2000/svg" xmlns:xlink="http://www.w3.org/1999/xlink" xmlns:sketch="http://www.bohemiancoding.com/sketch/ns">
    <!-- Generator: Sketch 3.3.2 (12043) - http://www.bohemiancoding.com/sketch -->
    <title>icon_phone_mobile</title>
    <desc>Created with Sketch.</desc>
    <defs></defs>
    <g id="Page-1" stroke="none" stroke-width="1" fill="none" fill-rule="evenodd" sketch:type="MSPage">
        <g id="setak-web-button" sketch:type="MSLayerGroup" transform="translate(-177.000000, -392.000000)">
            <g id="icon_phone_mobile" transform="translate(177.000000, 392.000000)">
                <g id="icon_phone" sketch:type="MSShapeGroup">
                    <circle id="Oval" opacity="0.7" fill="#ED1732" cx="60.7" cy="59.9" r="59.9"></circle>
                    <path d="M77.9,26.3 L77.9,26.3 L71.7,22.6 C69.6,21.4 66.9,22.1 65.6,24.2 L57.3,38.4 C56.1,40.5 56.8,43.2 58.9,44.5 L65.1,48.1 L49.8,74 L43.6,70.4 C41.5,69.2 38.8,69.9 37.5,72 L29.2,86.2 C28,88.3 28.7,91 30.8,92.3 L37,96 C45.6,101 56.6,98.2 61.6,89.6 L84.2,51.1 C89.3,42.4 86.5,31.4 77.9,26.3 L77.9,26.3 Z" id="Shape" stroke="#FFFFFF" stroke-width="5"></path>
                    <circle id="Oval" cx="60.7" cy="59.9" r="59.9"></circle>
                </g>
                <path d="M207.5,0 L60.7,0 C93.8,0 120.6,26.8 120.6,59.9 C120.6,93 93.8,119.8 60.7,119.8 L207.5,119.8 C230.4,119.8 249,101.2 249,78.3 L249,41.5 C249,18.6 230.4,0 207.5,0 L207.5,0 Z" id="Shape" opacity="0.8" fill="#FFFFFF" sketch:type="MSShapeGroup"></path>
                <text id="전화예약" fill="#ED174C" sketch:type="MSTextLayer" font-family="Apple SD Gothic Neo" font-size="26" font-weight="normal">
                    <tspan x="130.6147" y="68.5146" fill="#000000">전화예약</tspan>
                </text>
            </g>
        </g>
    </g>
</svg>