<?xml version="1.0" encoding="UTF-8" standalone="no"?>
<svg width="135px" height="188px" viewBox="0 0 135 188" version="1.1" xmlns="http://www.w3.org/2000/svg" xmlns:xlink="http://www.w3.org/1999/xlink" xmlns:sketch="http://www.bohemiancoding.com/sketch/ns">
    <!-- Generator: Sketch 3.3.2 (12043) - http://www.bohemiancoding.com/sketch -->
    <title>heavy</title>
    <desc>Created with Sketch.</desc>
    <defs></defs>
    <g id="Page-1" stroke="none" stroke-width="1" fill="none" fill-rule="evenodd" sketch:type="MSPage">
        <g id="setak-web2-3" sketch:type="MSLayerGroup" transform="translate(-1118.000000, -886.000000)" stroke="#FFFFFF">
            <g id="Group" sketch:type="MSShapeGroup">
                <g transform="translate(1.000000, 843.000000)" id="heavy">
                    <g transform="translate(1117.000000, 45.000000)">
                        <g id="Group" transform="translate(0.000000, 18.000000)" fill="#ED174C">
                            <rect id="Rectangle-path" stroke-width="5.99969591" transform="translate(52.832030, 69.007510) rotate(-17.398461) translate(-52.832030, -69.007510) " x="38.8327395" y="1.56092845" width="27.9985809" height="134.893163"></rect>
                            <path d="M4,25.9 L42.8,149.7 C44.7,155.8 54.7,158.1 65.1,154.9 C75.5,151.6 82.4,144 80.5,137.9 L41.6,14 L4,25.9 L4,25.9 Z" id="Shape" stroke-width="6"></path>
                            <ellipse id="Oval" stroke-width="4.99989612" transform="translate(22.788450, 19.816700) rotate(-17.403928) translate(-22.788450, -19.816700) " cx="22.78845" cy="19.8167" rx="19.6995907" ry="11.599759"></ellipse>
                            <path d="M34.4,8.4 C24.7,7.8 11,16.2 12.9,22.3 C14.9,28.8 35.3,22.3 33.5,16.4 C32.3,12.7 21.7,16.7 22.5,19.1 L23.7,22.9" id="Shape" stroke-width="5"></path>
                        </g>
                        <g id="Group" transform="translate(58.000000, 0.000000)">
                            <rect id="Rectangle-path" stroke-width="6" fill="#ED174C" x="23.5" y="2.1" width="42.1" height="159.2"></rect>
                            <path d="M0.2,15.8 L0.2,168.9 C0.2,176.5 10.6,182.6 23.5,182.6 C36.4,182.6 46.8,176.5 46.8,168.9 L46.8,15.8 L0.2,15.8 L0.2,15.8 Z" id="Shape" stroke-width="6" fill="#ED174C"></path>
                            <ellipse id="Oval" stroke-width="6" fill="#ED174C" cx="23.5" cy="15.8" rx="23.3" ry="13.7"></ellipse>
                            <path d="M40.7,7 C30,2.9 11.6,7.5 11.6,15 C11.6,23 36.9,22.9 36.9,15.6 C36.9,11 23.6,11.8 23.6,14.7 L23.6,19.4" id="Shape" stroke-width="5" fill="#ED174C"></path>
                            <g transform="translate(66.000000, 0.000000)" id="Shape" stroke-width="5">
                                <path d="M0.1,3.1 L10.1,0.9"></path>
                                <path d="M0.1,3.1 L10.1,6.4"></path>
                            </g>
                            <g transform="translate(66.000000, 16.000000)" id="Shape" stroke-width="5">
                                <path d="M0.1,2.9 L10.1,0.7"></path>
                                <path d="M0.1,2.9 L10.1,6.2"></path>
                            </g>
                            <g transform="translate(66.000000, 32.000000)" id="Shape" stroke-width="5">
                                <path d="M0.1,2.6 L10.1,0.4"></path>
                                <path d="M0.1,2.6 L10.1,5.9"></path>
                            </g>
                            <g transform="translate(66.000000, 48.000000)" id="Shape" stroke-width="5">
                                <path d="M0.1,2.4 L10.1,0.2"></path>
                                <path d="M0.1,2.4 L10.1,5.7"></path>
                            </g>
                            <g transform="translate(66.000000, 64.000000)" id="Shape" stroke-width="5">
                                <path d="M0.1,2.2 L10.1,0"></path>
                                <path d="M0.1,2.2 L10.1,5.5"></path>
                            </g>
                            <g transform="translate(66.000000, 79.000000)" id="Shape" stroke-width="5">
                                <path d="M0.1,2.9 L10.1,0.7"></path>
                                <path d="M0.1,2.9 L10.1,6.2"></path>
                            </g>
                            <g transform="translate(66.000000, 95.000000)" id="Shape" stroke-width="5">
                                <path d="M0.1,2.7 L10.1,0.5"></path>
                                <path d="M0.1,2.7 L10.1,6"></path>
                            </g>
                            <g transform="translate(66.000000, 111.000000)" id="Shape" stroke-width="5">
                                <path d="M0.1,2.5 L10.1,0.3"></path>
                                <path d="M0.1,2.5 L10.1,5.8"></path>
                            </g>
                            <g transform="translate(66.000000, 127.000000)" id="Shape" stroke-width="5">
                                <path d="M0.1,2.2 L10.1,0"></path>
                                <path d="M0.1,2.2 L10.1,5.5"></path>
                            </g>
                            <g transform="translate(66.000000, 142.000000)" id="Shape" stroke-width="5">
                                <path d="M0.1,3 L10.1,0.8"></path>
                                <path d="M0.1,3 L10.1,6.3"></path>
                            </g>
                            <g transform="translate(66.000000, 158.000000)" id="Shape" stroke-width="5">
                                <path d="M0.1,2.8 L10.1,0.6"></path>
                                <path d="M0.1,2.8 L10.1,6.1"></path>
                            </g>
                        </g>
                    </g>
                </g>
            </g>
        </g>
    </g>
</svg>