<?xml version="1.0" encoding="UTF-8" standalone="no"?>
<svg width="1110px" height="609px" viewBox="0 0 1110 609" version="1.1" xmlns="http://www.w3.org/2000/svg" xmlns:xlink="http://www.w3.org/1999/xlink" xmlns:sketch="http://www.bohemiancoding.com/sketch/ns">
    <!-- Generator: Sketch 3.3.2 (12043) - http://www.bohemiancoding.com/sketch -->
    <title>Process</title>
    <desc>Created with Sketch.</desc>
    <defs></defs>
    <g id="Page-1" stroke="none" stroke-width="1" fill="none" fill-rule="evenodd" sketch:type="MSPage">
        <g id="setak-web2-3" sketch:type="MSLayerGroup" transform="translate(-162.000000, -3061.000000)">
            <g id="Group">
                <g id="Process" transform="translate(162.000000, 3061.000000)">
                    <g id="Group" transform="translate(901.000000, 71.000000)" stroke="#ED174C" stroke-width="3" sketch:type="MSShapeGroup">
                        <path d="M61.6,15.2 C69.7,15.2 76.4,8.6 76.4,0.4 C76.4,0.4 69.7,3.1 61.6,3.1 C53.5,3.1 46.9,0.4 46.9,0.4 C46.8,8.6 53.4,15.2 61.6,15.2 L61.6,15.2 Z" id="Shape" fill="#FFFFFF"></path>
                        <path d="M124.4,41.7 C124.4,41.7 104.8,5.6 96.4,4.1 C88,2.6 76.3,0.4 76.3,0.4 C76.3,8.6 69.7,15.2 61.5,15.2 C53.3,15.2 46.7,8.6 46.7,0.4 C46.7,0.4 36.9,2.3 28.8,4.1 C20.7,5.9 0.7,41.6 0.7,41.6 L21.8,56.5 L28.8,46.2 L28.8,93.5 L96.3,93.5 L96.3,46.3 L103.3,56.6 L124.4,41.7 L124.4,41.7 Z" id="Shape"></path>
                        <path d="M28.9,46.4 L28.9,26.8" id="Shape"></path>
                        <path d="M96.4,45.9 L96.4,26.8" id="Shape"></path>
                    </g>
                    <rect id="Rectangle-path" stroke="#ED174C" stroke-width="2.99997123" sketch:type="MSShapeGroup" transform="translate(1009.806805, 162.674735) rotate(-45.000000) translate(-1009.806805, -162.674735) " x="1005.65684" y="154.974809" width="8.2999204" height="15.3998523"></rect>
                    <text id="수거-요청" fill="#414A51" sketch:type="MSTextLayer" font-family="Apple SD Gothic Neo" font-size="28" font-weight="normal">
                        <tspan x="53.9375" y="227.6714" fill="#000000">수거</tspan>
                        <tspan x="102.3775" y="227.6714" font-family="Helvetica" fill="#000000"> </tspan>
                        <tspan x="110.156797" y="227.6714" fill="#000000">요청</tspan>
                    </text>
                    <text id="방문-및-수거" fill="#414A51" sketch:type="MSTextLayer" font-family="Apple SD Gothic Neo" font-size="28" font-weight="normal">
                        <tspan x="321.8574" y="227.6714" fill="#000000">방문</tspan>
                        <tspan x="370.2974" y="227.6714" font-family="Helvetica" fill="#000000"> </tspan>
                        <tspan x="378.076697" y="227.6714" fill="#000000">및</tspan>
                        <tspan x="402.296697" y="227.6714" font-family="Helvetica" fill="#000000"> </tspan>
                        <tspan x="410.075994" y="227.6714" fill="#000000">수거</tspan>
                    </text>
                    <text id="전산-등록" fill="#414A51" sketch:type="MSTextLayer" font-family="Apple SD Gothic Neo" font-size="28" font-weight="normal">
                        <tspan x="624.4629" y="227.6714" fill="#000000">전산</tspan>
                        <tspan x="672.9029" y="227.6714" font-family="Helvetica" fill="#000000"> </tspan>
                        <tspan x="680.682197" y="227.6714" fill="#000000">등록</tspan>
                    </text>
                    <text id="검품" fill="#414A51" sketch:type="MSTextLayer" font-family="Apple SD Gothic Neo" font-size="28" font-weight="normal">
                        <tspan x="934.856" y="227.6714" fill="#000000">검품</tspan>
                    </text>
                    <text id="배달" fill="#414A51" sketch:type="MSTextLayer" font-family="Apple SD Gothic Neo" font-size="28" font-weight="normal">
                        <tspan x="629.3379" y="577.0454" fill="#000000">배달</tspan>
                    </text>
                    <g id="Group" transform="translate(333.000000, 77.000000)" stroke="#ED174C" stroke-width="3" sketch:type="MSShapeGroup">
                        <path d="M124.4,48.2 L107.4,25.9 C105.8,23.3 103.4,22.6 100.3,22.6 L73,22.6 C68.1,22.6 62.5,24.9 62.5,29.8 L62.5,53.4 L62.5,53.9 L62.5,54.5 L62.5,75 C62.5,80.4 68.4,85.7 73.6,85.7 L117.4,85.7 C122.6,85.7 125.5,80.4 125.5,75 L125.5,55.2 C125.5,52.6 125.9,50.7 124.4,48.2 L124.4,48.2 Z" id="Shape"></path>
                        <path d="M74.5,85.5 L64.7,85.5 L11.7,85.5 C5.8,85.5 0.5,80.9 0.5,75 L0.5,10.7 C0.5,4.8 5.8,0.5 11.7,0.5 L64.7,0.5 C70.6,0.5 74.5,4.8 74.5,10.7 L74.5,85.5 L74.5,85.5 Z" id="Shape" fill="#FFFFFF"></path>
                        <path d="M83.5,31.5 L83.5,53.5 L112.7,53.5 C116.3,53.5 115.2,49.6 114.3,48.5 C113.4,47.4 101,31.5 101,31.5 L83.5,31.5 L83.5,31.5 Z" id="Shape"></path>
                        <circle id="Oval" fill="#FFFFFF" cx="30.7" cy="85.7" r="13.2"></circle>
                        <circle id="Oval" fill="#FFFFFF" cx="94.9" cy="85.7" r="13.2"></circle>
                    </g>
                    <g id="Group" transform="translate(597.000000, 425.000000)" stroke="#ED174C" stroke-width="3" sketch:type="MSShapeGroup">
                        <path d="M1.6,48.2 L18.6,25.9 C20.2,23.3 22.6,22.6 25.7,22.6 L53.1,22.6 C58,22.6 63.5,24.9 63.5,29.8 L63.5,53.4 L63.5,53.9 L63.5,54.5 L63.5,75 C63.5,80.4 57.7,85.7 52.5,85.7 L8.7,85.7 C3.5,85.7 0.6,80.4 0.6,75 L0.6,55.2 C0.5,52.6 0.1,50.7 1.6,48.2 L1.6,48.2 Z" id="Shape"></path>
                        <path d="M51.5,85.5 L61.4,85.5 L114.4,85.5 C120.3,85.5 125.5,80.9 125.5,75 L125.5,10.7 C125.5,4.8 120.3,0.5 114.4,0.5 L61.4,0.5 C55.5,0.5 51.5,4.8 51.5,10.7 L51.5,85.5 L51.5,85.5 Z" id="Shape" fill="#FFFFFF"></path>
                        <path d="M42.5,31.5 L42.5,53.5 L13.3,53.5 C9.7,53.5 10.8,49.6 11.7,48.5 C12.6,47.4 25,31.5 25,31.5 L42.5,31.5 L42.5,31.5 Z" id="Shape"></path>
                        <circle id="Oval" fill="#FFFFFF" cx="95.4" cy="85.7" r="13.2"></circle>
                        <circle id="Oval" fill="#FFFFFF" cx="31.1" cy="85.7" r="13.2"></circle>
                    </g>
                    <g id="Group" transform="translate(40.000000, 0.000000)" sketch:type="MSShapeGroup">
                        <ellipse id="Oval" fill="#ED174C" cx="95.3" cy="36.7" rx="53.7" ry="36.3"></ellipse>
                        <path d="M81.3,60.4 L90,91.1 L102.7,60.4 L81.3,60.4 Z" id="Shape" fill="#ED174C"></path>
                        <g transform="translate(0.000000, 70.000000)" stroke="#ED174C">
                            <path d="M74.6,82.9 C75.4,85.6 73.9,88.4 71.2,89.2 L31.1,101.3 C28.4,102.1 25.6,100.6 24.8,97.9 L1.1,19.4 C0.3,16.7 1.8,13.9 4.5,13.1 L44.6,1 C47.3,0.2 50.1,1.7 50.9,4.4 L74.6,82.9 L74.6,82.9 Z" id="Shape" stroke-width="3"></path>
                            <rect id="Rectangle-path" stroke-width="2.99991643" transform="translate(36.696730, 46.809335) rotate(-16.798579) translate(-36.696730, -46.809335) " x="17.8972537" y="13.96025" width="37.5989526" height="65.6981699"></rect>
                            <circle id="Oval" stroke-width="3" cx="48.6" cy="86.8" r="4.8"></circle>
                        </g>
                        <g transform="translate(44.000000, 101.000000)" id="Shape" stroke="#ED174C" stroke-width="3">
                            <path d="M56,31 C56,33.3 54.1,35.2 51.8,35.2 L4.9,35.2 C2.6,35.2 0.7,33.3 0.7,31 L0.7,4.4 C0.7,2.1 2.6,0.2 4.9,0.2 L51.8,0.2 C54.1,0.2 56,2.1 56,4.4 L56,31 L56,31 Z" fill="#FFFFFF"></path>
                            <path d="M2.3,2.8 L28.3,23.4 L54.3,2.8"></path>
                        </g>
                        <path d="M134.3,107.5 L134.3,107.5 L129.2,104.5 C127.5,103.5 125.2,104.1 124.2,105.8 L117.3,117.5 C116.3,119.2 116.9,121.5 118.6,122.5 L123.7,125.5 L111.1,146.9 L106,143.9 C104.3,142.9 102,143.5 101,145.2 L94.1,156.9 C93.1,158.6 93.7,160.9 95.4,161.9 L100.5,164.9 C107.6,169.1 116.7,166.7 120.9,159.6 L139.6,127.8 C143.7,120.8 141.3,111.7 134.3,107.5 L134.3,107.5 Z" id="Shape" stroke="#ED174C" stroke-width="3"></path>
                        <g transform="translate(57.000000, 21.000000)" id="Shape" fill="#FFFFFF">
                            <path d="M0.8,21.3 L7.7,20.3 C7.6,21.4 7.5,22.5 7.7,23.4 C7.8,24.3 8,25.2 8.3,25.8 C8.6,26.5 9,27 9.5,27.4 C10,27.8 10.6,28 11.3,28 C13.1,28 14.4,27.6 15.3,26.8 C16.2,26 16.7,24.9 17,23.4 C17.1,22.9 17.1,22.4 17.2,21.9 C17.2,21.5 17.1,21 16.9,20.6 C16.7,20.2 16.4,19.9 16.1,19.6 C15.7,19.3 15.2,19 14.5,18.8 L9.4,17 C8.5,16.7 7.7,16.3 6.9,15.9 C6.1,15.5 5.4,15 4.9,14.4 C4.3,13.8 4,13.1 3.8,12.2 C3.6,11.4 3.6,10.3 3.8,9.1 C4,8 4.4,6.8 4.9,5.8 C5.4,4.8 6.2,3.9 7.1,3.2 C8,2.5 9.2,1.9 10.5,1.4 C11.8,1 13.3,0.8 15.1,0.8 C16.3,0.8 17.6,0.9 18.9,1.2 C20.2,1.5 21.3,2 22.3,2.6 C23.3,3.3 24,4.3 24.6,5.5 C25.1,6.7 25.2,8.3 24.9,10.1 L17.9,11.1 C18.2,9.1 18.1,7.7 17.7,6.8 C17.3,5.9 16.5,5.3 15.4,5 C13.9,4.7 12.6,4.8 11.5,5.5 C10.4,6.2 9.8,7.2 9.5,8.6 C9.4,9.2 9.4,9.7 9.6,10.1 C9.7,10.6 9.9,10.9 10.3,11.3 C10.6,11.6 11,11.9 11.6,12.2 C12.1,12.5 12.6,12.8 13.2,13 L17.3,14.9 C18.3,15.4 19.1,15.9 19.9,16.3 C20.6,16.8 21.2,17.4 21.7,18 C22.2,18.6 22.5,19.3 22.7,20 C22.8,20.7 22.8,21.6 22.7,22.5 C22.4,24.1 21.9,25.5 21.2,26.6 C20.5,27.7 19.6,28.7 18.6,29.5 C17.5,30.3 16.3,30.9 14.9,31.3 C13.5,31.7 12,31.9 10.4,31.9 C6.8,31.9 4.2,31 2.6,29.2 C0.9,27.5 0.4,24.9 0.8,21.3 L0.8,21.3 Z"></path>
                            <path d="M28,16.2 C28.4,14.1 29,12.2 30,10.3 C30.9,8.4 32.1,6.8 33.4,5.3 C34.7,3.9 36.1,2.8 37.7,1.9 C39.3,1.1 40.9,0.6 42.5,0.6 C44.1,0.6 45.6,1 46.9,1.9 C48.2,2.8 49.2,3.9 50.1,5.3 C50.9,6.7 51.5,8.4 51.8,10.3 C52.1,12.2 52.1,14.2 51.7,16.2 C51.3,18.3 50.6,20.3 49.7,22.2 C48.7,24.2 47.6,25.9 46.2,27.4 C44.9,28.9 43.4,30.1 41.8,31 C40.2,31.9 38.6,32.4 36.9,32.4 C35.8,32.4 34.8,32.2 33.9,31.8 C32.9,31.4 32.1,30.8 31.4,30 C30.6,29.2 30,28.4 29.5,27.3 C28.9,26.3 28.5,25.2 28.3,24 C28,22.8 27.8,21.5 27.8,20.2 C27.7,18.9 27.7,17.5 28,16.2 L28,16.2 Z M34.4,15.8 C34.3,16.6 34.2,17.4 34.2,18.3 C34.2,19.2 34.2,20.1 34.3,20.9 C34.4,21.8 34.6,22.6 34.8,23.3 C35,24.1 35.3,24.8 35.7,25.4 C36,26 36.4,26.5 36.9,26.8 C37.4,27.1 37.9,27.3 38.5,27.3 C39.1,27.3 39.7,27.1 40.3,26.8 C40.8,26.5 41.4,26 42,25.4 C42.5,24.8 43,24.2 43.5,23.3 C44,22.6 44.4,21.8 44.8,20.9 C45.2,20.1 45.5,19.2 45.8,18.3 C46.1,17.4 46.3,16.6 46.4,15.8 C46.6,14.6 46.7,13.4 46.6,12.2 C46.5,11 46.3,9.9 46,9 C45.6,8.1 45.1,7.3 44.5,6.7 C43.9,6.1 43.1,5.8 42.3,5.8 C41.4,5.8 40.6,6.1 39.7,6.7 C38.8,7.3 38,8.1 37.3,9 C36.6,10 36,11.1 35.5,12.2 C35,13.4 34.6,14.7 34.4,15.8 L34.4,15.8 Z"></path>
                            <path d="M54.6,21.3 L61.5,20.3 C61.4,21.4 61.3,22.5 61.5,23.4 C61.6,24.3 61.8,25.2 62.1,25.8 C62.4,26.5 62.8,27 63.3,27.4 C63.8,27.8 64.4,28 65.1,28 C66.9,28 68.2,27.6 69.1,26.8 C70,26 70.5,24.9 70.8,23.4 C70.9,22.9 70.9,22.4 71,21.9 C71,21.5 70.9,21 70.7,20.6 C70.5,20.2 70.2,19.9 69.9,19.6 C69.5,19.3 69,19 68.3,18.8 L63.2,17 C62.3,16.7 61.5,16.3 60.7,15.9 C59.9,15.5 59.2,15 58.7,14.4 C58.1,13.8 57.8,13.1 57.6,12.2 C57.4,11.4 57.4,10.3 57.6,9.1 C57.8,8 58.2,6.8 58.7,5.8 C59.2,4.8 60,3.9 60.9,3.2 C61.8,2.5 63,1.9 64.3,1.4 C65.6,1 67.1,0.8 68.9,0.8 C70.1,0.8 71.4,0.9 72.7,1.2 C74,1.5 75.1,2 76.1,2.6 C77.1,3.3 77.8,4.3 78.4,5.5 C78.9,6.7 79,8.3 78.7,10.1 L71.7,11.1 C72,9.1 71.9,7.7 71.5,6.8 C71.1,5.9 70.3,5.3 69.2,5 C67.7,4.7 66.4,4.8 65.3,5.5 C64.2,6.2 63.6,7.2 63.3,8.6 C63.2,9.2 63.2,9.7 63.4,10.1 C63.5,10.6 63.7,10.9 64.1,11.3 C64.4,11.6 64.8,11.9 65.4,12.2 C65.9,12.5 66.4,12.8 67,13 L71.1,14.9 C72.1,15.4 72.9,15.9 73.7,16.3 C74.4,16.8 75,17.4 75.5,18 C76,18.6 76.3,19.3 76.5,20 C76.6,20.7 76.6,21.6 76.5,22.5 C76.2,24.1 75.7,25.5 75,26.6 C74.3,27.7 73.4,28.7 72.4,29.5 C71.3,30.3 70.1,30.9 68.7,31.3 C67.3,31.7 65.8,31.9 64.2,31.9 C60.6,31.9 58,31 56.4,29.2 C54.7,27.5 54.2,24.9 54.6,21.3 L54.6,21.3 Z"></path>
                        </g>
                    </g>
                    <g id="Group" transform="translate(619.000000, 57.000000)" stroke="#ED174C" stroke-width="3" sketch:type="MSShapeGroup">
                        <path d="M123.9,82.8 C123.9,85.5 121.7,87.7 119,87.7 L5.1,87.7 C2.4,87.7 0.2,85.5 0.2,82.8 L0.2,5.3 C0.2,2.6 2.4,0.4 5.1,0.4 L118.9,0.4 C121.6,0.4 123.8,2.6 123.8,5.3 L123.8,82.8 L123.9,82.8 Z" id="Shape"></path>
                        <rect id="Rectangle-path" x="9.2" y="10.1" width="105.7" height="67.9"></rect>
                        <path d="M87.4,99.7 L73.4,99.6 L73.4,87.7 L52,87.7 L52,99.4 L38,99.3 C32.8,99.3 28.5,103.9 28.5,109.1 L96.9,109.1 C96.9,103.9 92.7,99.7 87.4,99.7 L87.4,99.7 Z" id="Shape"></path>
                        <rect id="Rectangle-path" x="19.8" y="20.8" width="49.3" height="11.4"></rect>
                        <path d="M20.1,39.2 L69.4,39.2" id="Shape"></path>
                        <path d="M20.1,46.1 L69.4,46.1" id="Shape"></path>
                        <path d="M20.1,53 L69.4,53" id="Shape"></path>
                        <path d="M20.1,59.9 L69.4,59.9" id="Shape"></path>
                        <path d="M20.1,66.8 L69.4,66.8" id="Shape"></path>
                    </g>
                    <path d="M237.6,210.3 L255.3,220.5 L237.6,230.8 L237.6,210.3 Z" id="Shape" stroke="#ED174C" stroke-width="3" fill="#ED174C" sketch:type="MSShapeGroup"></path>
                    <path d="M542.6,210.3 L560.3,220.5 L542.6,230.8 L542.6,210.3 Z" id="Shape" stroke="#ED174C" stroke-width="3" fill="#ED174C" sketch:type="MSShapeGroup"></path>
                    <path d="M825.7,210.3 L843.4,220.5 L825.7,230.8 L825.7,210.3 Z" id="Shape" stroke="#ED174C" stroke-width="3" fill="#ED174C" sketch:type="MSShapeGroup"></path>
                    <path d="M809.1,581.2 L791.4,571 L809.1,560.8 L809.1,581.2 Z" id="Shape" stroke="#ED174C" stroke-width="3" fill="#ED174C" sketch:type="MSShapeGroup"></path>
                    <text id="미션완료" fill="#414A51" sketch:type="MSTextLayer" font-family="Apple SD Gothic Neo" font-size="28" font-weight="normal">
                        <tspan x="322.5327" y="577.0454" fill="#000000">미션완료</tspan>
                    </text>
                    <path d="M528.6,581.2 L510.9,571 L528.6,560.8 L528.6,581.2 Z" id="Shape" stroke="#ED174C" stroke-width="3" fill="#ED174C" sketch:type="MSShapeGroup"></path>
                    <path d="M1092.5,407.6 L1082.2,425.3 L1072,407.6 L1092.5,407.6 Z" id="Shape" stroke="#ED174C" stroke-width="3" fill="#ED174C" sketch:type="MSShapeGroup"></path>
                    <circle id="Oval" stroke="#ED174C" stroke-width="3" fill="#FFFFFF" sketch:type="MSShapeGroup" cx="981.5" cy="134.4" r="33.4"></circle>
                    <circle id="Oval" stroke="#ED174C" stroke-width="3" sketch:type="MSShapeGroup" cx="981.1" cy="134" r="25"></circle>
                    <path d="M1018.5,162.3 L1041.6,185.4 C1044.1,187.9 1044.1,192 1041.6,194.5 L1041.6,194.5 C1039.1,197 1035,197 1032.5,194.5 L1009.4,171.4 L1018.5,162.3 L1018.5,162.3 Z" id="Shape" stroke="#ED174C" stroke-width="3" fill="#FFFFFF" sketch:type="MSShapeGroup"></path>
                    <g id="Group" transform="translate(876.000000, 400.000000)">
                        <g transform="translate(12.000000, 15.000000)" id="Shape" stroke-width="3" sketch:type="MSShapeGroup">
                            <path d="M15.8,36.8 C22,36.8 27.6,39.3 31.6,43.4 L31.6,43.4 C35.6,47.4 41.1,49.8 47.2,49.8 C53.3,49.8 58.9,47.3 62.9,43.3 L62.9,43.3 C66.9,39.3 72.5,36.8 78.6,36.8 C84.6,36.8 90.5,39.5 94.5,43.4 C92.3,19.2 72,0.3 47.3,0.3 C22.6,0.3 2.3,19.2 0.1,43.3 L0.1,43.3 C4.1,39.3 9.7,36.8 15.8,36.8 L15.8,36.8 Z" stroke="#EE2B53" fill="#ED174C"></path>
                            <path d="M78.7,36.8 C72.6,36.8 67,39.3 63,43.3 L63,43.3 C59,47.3 53.4,49.8 47.3,49.8 C41.2,49.8 35.7,47.3 31.7,43.4 L31.7,43.4 C27.7,39.3 22.1,36.8 15.9,36.8 C9.8,36.8 4.2,39.3 0.2,43.3 L0.2,43.3 C0.1,44.7 0,46.2 0,47.7 C0,73.9 21.2,95.1 47.4,95.1 C73.6,95.1 94.8,73.9 94.8,47.7 C94.8,46.3 94.7,44.8 94.6,43.4 C90.5,39.5 84.7,36.8 78.7,36.8 L78.7,36.8 Z" stroke="#ED174C"></path>
                        </g>
                        <text id="세탁" fill="#414A51" sketch:type="MSTextLayer" font-family="Apple SD Gothic Neo" font-size="28" font-weight="normal">
                            <tspan x="31.8218" y="177.0464" fill="#000000">세탁</tspan>
                        </text>
                        <circle id="Oval" stroke="#ED174C" stroke-width="3" sketch:type="MSShapeGroup" cx="59.3" cy="62.7" r="58.5"></circle>
                        <circle id="Oval" stroke="#ED174C" stroke-width="3" sketch:type="MSShapeGroup" cx="94" cy="66.4" r="5.4"></circle>
                        <circle id="Oval" stroke="#ED174C" stroke-width="3" sketch:type="MSShapeGroup" cx="84.9" cy="82.5" r="4"></circle>
                        <circle id="Oval" stroke="#ED174C" stroke-width="3" fill="#FFFFFF" sketch:type="MSShapeGroup" cx="36.5" cy="14.4" r="13.7"></circle>
                        <circle id="Oval" stroke="#ED174C" stroke-width="3" fill="#FFFFFF" sketch:type="MSShapeGroup" cx="54.5" cy="38.3" r="6.9"></circle>
                    </g>
                    <path d="M986.6,130.5 C988.8,126.7 987.5,121.8 983.6,119.6 C979.8,117.4 974.9,118.7 972.7,122.6 C969.5,128.1 973.2,129.7 971.6,132.6 C970.7,134.2 969.5,134.7 968.7,136.3 C967.4,138.6 968.2,141.5 970.5,142.8 C972.8,144.1 975.7,143.3 977,141 C977.9,139.4 977.4,138 978.4,136.3 C979.5,134 983.8,135.4 986.6,130.5 L986.6,130.5 Z" id="Shape" fill="#ED174C" sketch:type="MSShapeGroup"></path>
                    <g id="Group" transform="translate(9.000000, 247.000000)" stroke="#ED174C" stroke-width="3" sketch:type="MSShapeGroup">
                        <path d="M0,0 L2.5,0" id="Shape"></path>
                        <path d="M9.5,0 L989,0 C1049.8,0 1099,49.2 1099,110 L1099,241.5 C1099,302.3 1049.8,351.5 989,351.5 L241.3,351.5" id="Shape" stroke-dasharray="4.9996,6.9995"></path>
                        <path d="M237.8,351.5 L235.3,351.5" id="Shape"></path>
                    </g>
                    <circle id="Oval" fill="#ED174C" sketch:type="MSShapeGroup" cx="10.5" cy="247.1" r="10"></circle>
                    <circle id="Oval" fill="#ED174C" sketch:type="MSShapeGroup" cx="245.6" cy="598.8" r="10"></circle>
                    <g id="Group" transform="translate(318.000000, 438.000000)" stroke="#ED174C" stroke-width="3" sketch:type="MSShapeGroup">
                        <path d="M56.6,13.9 C64.1,13.9 70.2,7.8 70.2,0.3 C70.2,0.3 64,2.8 56.5,2.8 C49,2.8 43,0.3 43,0.3 C43,7.9 49.1,13.9 56.6,13.9 L56.6,13.9 Z" id="Shape" fill="#FFFFFF"></path>
                        <path d="M114.4,38.4 C114.4,38.4 96.3,5.2 88.6,3.8 C80.9,2.3 70.1,0.4 70.1,0.4 C70.1,7.9 64,14 56.5,14 C49,14 42.9,7.9 42.9,0.4 C42.9,0.4 33.9,2.2 26.4,3.8 C19,5.4 0.6,38.3 0.6,38.3 L20,52 L26.4,42.5 L26.4,86 L88.5,86 L88.5,42.6 L94.9,52.1 L114.4,38.4 L114.4,38.4 Z" id="Shape"></path>
                        <path d="M26.5,42.7 L26.5,24.7" id="Shape"></path>
                        <path d="M88.6,42.3 L88.6,24.7" id="Shape"></path>
                    </g>
                    <ellipse id="Oval" fill="#ED174C" sketch:type="MSShapeGroup" cx="332.3" cy="389.2" rx="53.7" ry="36.3"></ellipse>
                    <path d="M297.4,406.3 L283.7,435.1 L313.4,420.3 L297.4,406.3 Z" id="Shape" fill="#ED174C" sketch:type="MSShapeGroup"></path>
                    <g id="Group" transform="translate(290.000000, 379.000000)" fill="#FFFFFF" sketch:type="MSShapeGroup">
                        <path d="M17,0.7 L17.8,19.1 L17.9,19.1 L23.7,0.7 L28.8,0.7 L19.1,25.2 L15.4,25.2 L14.2,9.2 L14.1,9.2 L5.6,25.2 L1.9,25.2 L0.8,0.7 L5.9,0.7 L4.9,17.2 L5,17.2 L13.8,0.7 L17,0.7 L17,0.7 Z" id="Shape"></path>
                        <path d="M29.2,12.9 C29.5,11.3 30,9.7 30.8,8.2 C31.5,6.7 32.4,5.4 33.5,4.3 C34.5,3.2 35.7,2.3 36.9,1.6 C38.1,0.9 39.4,0.6 40.7,0.6 C42,0.6 43.1,0.9 44.2,1.6 C45.2,2.3 46,3.2 46.7,4.3 C47.3,5.4 47.8,6.7 48,8.2 C48.2,9.7 48.2,11.3 47.9,12.9 C47.6,14.5 47.1,16.1 46.3,17.6 C45.5,19.1 44.6,20.5 43.6,21.7 C42.5,22.9 41.4,23.8 40.1,24.6 C38.8,25.3 37.5,25.7 36.3,25.7 C35.4,25.7 34.6,25.5 33.9,25.2 C33.1,24.9 32.5,24.4 31.9,23.8 C31.3,23.2 30.8,22.5 30.4,21.7 C30,20.9 29.6,20 29.4,19.1 C29.2,18.2 29,17.2 29,16.1 C28.9,15 29,13.9 29.2,12.9 L29.2,12.9 Z M34.2,12.6 C34.1,13.2 34,13.9 34,14.6 C34,15.3 34,16 34.1,16.6 C34.2,17.3 34.3,17.9 34.5,18.5 C34.7,19.1 34.9,19.7 35.2,20.1 C35.5,20.6 35.8,21 36.2,21.2 C36.6,21.5 37,21.6 37.4,21.6 C37.9,21.6 38.3,21.5 38.8,21.2 C39.2,20.9 39.7,20.5 40.1,20.1 C40.5,19.6 40.9,19.1 41.3,18.5 C41.7,17.9 42,17.3 42.3,16.6 C42.6,15.9 42.8,15.2 43.1,14.6 C43.3,13.9 43.5,13.3 43.6,12.6 C43.8,11.7 43.8,10.7 43.8,9.8 C43.7,8.9 43.6,8 43.3,7.2 C43,6.5 42.6,5.8 42.1,5.4 C41.6,4.9 41,4.7 40.3,4.7 C39.6,4.7 38.9,4.9 38.3,5.4 C37.6,5.9 37,6.5 36.4,7.2 C35.8,8 35.3,8.8 34.9,9.8 C34.7,10.7 34.4,11.7 34.2,12.6 L34.2,12.6 Z" id="Shape"></path>
                        <path d="M68.6,0.7 L69.4,19.1 L69.5,19.1 L75.3,0.7 L80.4,0.7 L70.7,25.2 L67,25.2 L65.8,9.2 L65.7,9.2 L57.2,25.2 L53.5,25.2 L52.4,0.7 L57.5,0.7 L56.5,17.2 L56.6,17.2 L65.4,0.7 L68.6,0.7 L68.6,0.7 Z" id="Shape"></path>
                        <path d="M85.1,20.3 L83.6,24.9 L79.9,25.1 L80.3,20.5 L85.1,20.3 L85.1,20.3 Z M89.1,1.2 L85.4,18.3 L81.1,18.5 L83.7,1.3 L89.1,1.2 L89.1,1.2 Z" id="Shape"></path>
                    </g>
                    <path d="M312.8,478.6 C312.8,485.9 308.7,491.8 303.6,491.9 C308.7,492 312.8,497.9 312.8,505.2 L312.8,505.2 C312.8,497.9 316.9,491.9 322.1,491.9 C317,491.8 312.8,485.9 312.8,478.6 L312.8,478.6 Z" id="Shape" stroke="#EE2B53" stroke-width="2" fill="#ED174C" sketch:type="MSShapeGroup"></path>
                    <path d="M416.8,414.8 C416.8,422.1 412.7,428 407.6,428.1 C412.7,428.2 416.8,434.1 416.8,441.4 L416.8,441.4 C416.8,434.1 420.9,428.1 426.1,428.1 C420.9,428 416.8,422.1 416.8,414.8 L416.8,414.8 Z" id="Shape" stroke="#EE2B53" stroke-width="2" fill="#ED174C" sketch:type="MSShapeGroup"></path>
                    <path d="M322.6,500.8 C322.6,506.4 319.4,510.9 315.5,511 C319.4,511.1 322.6,515.6 322.6,521.3 L322.6,521.3 C322.6,515.7 325.8,511.1 329.7,511 C325.8,511 322.6,506.4 322.6,500.8 L322.6,500.8 Z" id="Shape" stroke="#EE2B53" stroke-width="2" fill="#ED174C" sketch:type="MSShapeGroup"></path>
                    <path d="M418.8,508.7 C418.8,514.3 415.6,518.8 411.7,518.9 C415.6,519 418.8,523.5 418.8,529.2 L418.8,529.2 C418.8,523.6 422,519 425.9,518.9 C422,518.9 418.8,514.3 418.8,508.7 L418.8,508.7 Z" id="Shape" stroke="#EE2B53" stroke-width="2" fill="#ED174C" sketch:type="MSShapeGroup"></path>
                </g>
            </g>
        </g>
    </g>
</svg>