<?xml version="1.0" encoding="UTF-8" standalone="no"?>
<svg width="225px" height="160px" viewBox="0 0 225 160" version="1.1" xmlns="http://www.w3.org/2000/svg" xmlns:xlink="http://www.w3.org/1999/xlink" xmlns:sketch="http://www.bohemiancoding.com/sketch/ns">
    <!-- Generator: Sketch 3.3.2 (12043) - http://www.bohemiancoding.com/sketch -->
    <title>late_night</title>
    <desc>Created with Sketch.</desc>
    <defs></defs>
    <g id="Page-1" stroke="none" stroke-width="1" fill="none" fill-rule="evenodd" sketch:type="MSPage">
        <g id="setak-web2-3" sketch:type="MSLayerGroup" transform="translate(-140.000000, -871.000000)">
            <g id="Group" sketch:type="MSShapeGroup">
                <g transform="translate(1.000000, 843.000000)" id="late_night">
                    <g transform="translate(140.000000, 35.000000)">
                        <path d="M0.4,111.472603 L94.6,60.4109589 L184.6,111.472603" id="Shape" stroke="#FFFFFF" stroke-width="6" fill="#ED174C"></path>
                        <path d="M199.6,0.102739726 C204.4,5.34246575 207.4,12.4315068 207.4,20.239726 C207.4,36.4726027 194.6,49.5205479 178.9,49.5205479 C171.3,49.5205479 164.4,46.4383562 159.3,41.5068493 C163.6,54.1438356 175.3,63.1849315 189.1,63.1849315 C206.5,63.1849315 220.7,48.6986301 220.7,30.7191781 C220.6,16.6438356 211.8,4.62328767 199.6,0.102739726 L199.6,0.102739726 Z" id="Shape" stroke="#FFFFFF" stroke-width="6"></path>
                        <rect id="Rectangle-path" stroke="#FFFFFF" stroke-width="6" fill="#ED174C" x="14.5" y="92.9794521" width="156.1" height="56.4041096"></rect>
                        <g id="Group" transform="translate(29.000000, 104.794521)" fill="#FFFFFF">
                            <path d="M22.4,3.39041096 C22.6,3.49315068 22.8,3.69863014 22.9,3.90410959 C23,4.10958904 23,4.31506849 22.8,4.62328767 L21,7.70547945 C20.8,7.9109589 20.6,8.11643836 20.4,8.11643836 C20.2,8.11643836 20,8.11643836 19.7,7.9109589 C18.9,7.29452055 18.1,6.88356164 17.2,6.57534247 C16.3,6.26712329 15.4,6.06164384 14.4,6.06164384 C13.2,6.06164384 12,6.26712329 11,6.78082192 C10,7.29452055 9.1,7.9109589 8.3,8.73287671 C7.5,9.55479452 7,10.5821918 6.5,11.609589 C6.1,12.739726 5.9,13.9726027 5.9,15.2054795 C5.9,16.4383562 6.1,17.6712329 6.5,18.8013699 C6.9,19.9315068 7.5,20.8561644 8.3,21.6780822 C9.1,22.5 10,23.1164384 11,23.630137 C12,24.1438356 13.2,24.3493151 14.4,24.3493151 C15.4,24.3493151 16.3,24.1438356 17.2,23.8356164 C18.1,23.5273973 18.9,23.1164384 19.7,22.5 C20,22.2945205 20.2,22.2945205 20.4,22.2945205 C20.6,22.2945205 20.8,22.5 20.9,22.7054795 L22.7,25.890411 C22.8,26.1986301 22.9,26.4041096 22.8,26.609589 C22.7,26.8150685 22.5,26.9178082 22.3,27.1232877 C21.2,27.9452055 19.9,28.5616438 18.6,28.9726027 C17.3,29.3835616 15.9,29.5890411 14.4,29.5890411 C13.1,29.5890411 11.9,29.3835616 10.7,29.0753425 C9.5,28.7671233 8.4,28.2534247 7.3,27.6369863 C6.3,27.0205479 5.3,26.3013699 4.5,25.3767123 C3.6,24.5547945 2.9,23.5273973 2.3,22.5 C1.7,21.4726027 1.2,20.3424658 0.9,19.109589 C0.6,17.8767123 0.4,16.6438356 0.4,15.3082192 C0.4,13.9726027 0.6,12.739726 0.9,11.5068493 C1.2,10.2739726 1.7,9.14383562 2.3,8.01369863 C2.9,6.98630137 3.6,5.95890411 4.5,5.03424658 C5.4,4.10958904 6.3,3.39041096 7.3,2.7739726 C8.3,2.15753425 9.5,1.64383562 10.7,1.33561644 C11.9,1.02739726 13.1,0.821917808 14.4,0.821917808 C15.9,0.821917808 17.2,1.02739726 18.6,1.43835616 C20,1.95205479 21.2,2.56849315 22.4,3.39041096 L22.4,3.39041096 Z" id="Shape"></path>
                            <path d="M27.8,2.15753425 C27.8,1.95205479 27.9,1.74657534 28,1.54109589 C28.2,1.33561644 28.4,1.33561644 28.6,1.33561644 L32.3,1.33561644 C32.8,1.33561644 33.1,1.64383562 33.1,2.15753425 L33.1,24.2465753 L43.8,24.2465753 C44,24.2465753 44.2,24.3493151 44.4,24.4520548 C44.6,24.6575342 44.6,24.8630137 44.6,25.0684932 L44.6,28.5616438 C44.6,29.0753425 44.3,29.3835616 43.8,29.3835616 L28.5,29.3835616 C28,29.3835616 27.7,29.0753425 27.7,28.5616438 L27.7,2.15753425 L27.8,2.15753425 Z" id="Shape"></path>
                            <path d="M46.7,15.4109589 C46.7,14.0753425 46.9,12.8424658 47.2,11.609589 C47.5,10.3767123 48,9.24657534 48.6,8.11643836 C49.2,7.0890411 49.9,6.06164384 50.8,5.1369863 C51.7,4.21232877 52.6,3.49315068 53.6,2.87671233 C54.6,2.26027397 55.8,1.74657534 57,1.43835616 C58.2,1.13013699 59.4,0.924657534 60.7,0.924657534 C62,0.924657534 63.2,1.13013699 64.4,1.43835616 C65.6,1.74657534 66.7,2.26027397 67.8,2.87671233 C68.8,3.49315068 69.8,4.21232877 70.6,5.1369863 C71.5,6.06164384 72.2,6.98630137 72.8,8.11643836 C73.4,9.14383562 73.9,10.3767123 74.2,11.609589 C74.5,12.8424658 74.7,14.0753425 74.7,15.4109589 C74.7,16.7465753 74.5,17.9794521 74.2,19.2123288 C73.9,20.4452055 73.4,21.5753425 72.8,22.6027397 C72.2,23.630137 71.5,24.6575342 70.6,25.4794521 C69.7,26.4041096 68.8,27.1232877 67.8,27.739726 C66.8,28.3561644 65.6,28.869863 64.4,29.1780822 C63.2,29.4863014 62,29.6917808 60.7,29.6917808 C59.4,29.6917808 58.2,29.4863014 57,29.1780822 C55.8,28.869863 54.7,28.3561644 53.6,27.739726 C52.6,27.1232877 51.6,26.4041096 50.8,25.4794521 C49.9,24.6575342 49.2,23.630137 48.6,22.6027397 C48,21.5753425 47.5,20.4452055 47.2,19.2123288 C46.8,17.9794521 46.7,16.7465753 46.7,15.4109589 L46.7,15.4109589 Z M52.1,15.4109589 C52.1,16.6438356 52.3,17.8767123 52.7,19.0068493 C53.1,20.1369863 53.7,21.0616438 54.5,21.8835616 C55.3,22.7054795 56.2,23.3219178 57.2,23.8356164 C58.2,24.3493151 59.4,24.5547945 60.6,24.5547945 C61.8,24.5547945 63,24.3493151 64,23.8356164 C65,23.3219178 65.9,22.7054795 66.7,21.8835616 C67.5,21.0616438 68.1,20.0342466 68.5,19.0068493 C68.9,17.8767123 69.1,16.7465753 69.1,15.4109589 C69.1,14.1780822 68.9,12.9452055 68.5,11.8150685 C68.1,10.6849315 67.5,9.76027397 66.7,8.93835616 C65.9,8.11643836 65,7.5 64,6.98630137 C63,6.47260274 61.8,6.26712329 60.6,6.26712329 C59.4,6.26712329 58.2,6.47260274 57.2,6.98630137 C56.2,7.5 55.3,8.11643836 54.5,8.93835616 C53.7,9.76027397 53.1,10.7876712 52.7,11.8150685 C52.3,12.8424658 52.1,14.0753425 52.1,15.4109589 L52.1,15.4109589 Z" id="Shape"></path>
                            <path d="M94.9,8.83561644 C94.7,8.83561644 94.6,8.83561644 94.5,8.73287671 C94.4,8.63013699 94.2,8.52739726 94,8.42465753 L94,8.42465753 C93.8,8.21917808 93.5,7.9109589 93.1,7.60273973 C92.7,7.29452055 92.3,7.0890411 91.9,6.78082192 C91.4,6.57534247 91,6.26712329 90.4,6.16438356 C89.9,5.95890411 89.4,5.85616438 88.8,5.85616438 C88.1,5.85616438 87.5,5.95890411 87,6.06164384 C86.5,6.26712329 86,6.47260274 85.7,6.67808219 C85.3,6.98630137 85.1,7.29452055 84.9,7.60273973 C84.7,8.01369863 84.6,8.32191781 84.6,8.73287671 C84.6,9.14383562 84.7,9.55479452 85,9.96575342 C85.3,10.2739726 85.6,10.5821918 86.1,10.890411 C86.6,11.1986301 87.1,11.4041096 87.7,11.609589 C88.3,11.8150685 89,12.0205479 89.6,12.2260274 C90.8,12.6369863 91.9,13.0479452 93,13.4589041 C94.1,13.869863 95.1,14.4863014 96,15.1027397 C96.9,15.7191781 97.6,16.5410959 98.1,17.3630137 C98.6,18.2876712 98.9,19.3150685 98.9,20.6506849 C98.9,21.9863014 98.6,23.2191781 98.1,24.3493151 C97.6,25.4794521 96.8,26.4041096 95.9,27.2260274 C95,28.0479452 93.8,28.6643836 92.6,29.0753425 C91.3,29.4863014 89.9,29.6917808 88.5,29.6917808 C87.6,29.6917808 86.6,29.5890411 85.7,29.3835616 C84.8,29.1780822 83.9,28.869863 83,28.4589041 C82.1,28.0479452 81.3,27.5342466 80.6,26.9178082 C79.8,26.3013699 79.2,25.6849315 78.6,24.9657534 L78.6,24.9657534 L78.6,24.8630137 C78.3,24.5547945 78.2,24.2465753 78.2,24.0410959 C78.2,23.8356164 78.3,23.5273973 78.6,23.2191781 L78.9,22.9109589 L79.2,22.6027397 C79.4,22.3972603 79.6,22.2945205 79.8,22.0890411 C80,21.8835616 80.2,21.6780822 80.4,21.5753425 C80.6,21.369863 80.8,21.2671233 81,21.1643836 C81.2,21.0616438 81.3,20.9589041 81.4,20.9589041 C81.6,20.9589041 81.7,21.0616438 81.9,21.1643836 C82,21.2671233 82.2,21.369863 82.3,21.4726027 L82.4,21.5753425 C82.8,21.9863014 83.3,22.3972603 83.8,22.8082192 C84.3,23.2191781 84.9,23.5273973 85.4,23.8356164 C86,24.1438356 86.5,24.3493151 87.1,24.5547945 C87.7,24.760274 88.2,24.760274 88.7,24.760274 C89.4,24.760274 90,24.6575342 90.6,24.4520548 C91.2,24.2465753 91.7,24.0410959 92.1,23.7328767 C92.5,23.4246575 92.9,23.0136986 93.1,22.6027397 C93.3,22.1917808 93.5,21.6780822 93.5,21.0616438 C93.5,20.5479452 93.3,20.0342466 93,19.6232877 C92.7,19.2123288 92.3,18.9041096 91.8,18.5958904 C91.3,18.2876712 90.7,18.0821918 90.1,17.8767123 C89.5,17.6712329 88.8,17.4657534 88.2,17.260274 C86.7,16.7465753 85.4,16.3356164 84.3,15.7191781 C83.2,15.2054795 82.2,14.5890411 81.5,13.869863 C80.8,13.1506849 80.2,12.4315068 79.8,11.609589 C79.4,10.7876712 79.2,9.8630137 79.2,8.83561644 C79.2,7.70547945 79.4,6.57534247 79.9,5.65068493 C80.4,4.7260274 81,3.90410959 81.9,3.18493151 C82.7,2.46575342 83.8,1.95205479 84.9,1.54109589 C86.1,1.13013699 87.4,0.924657534 88.9,0.924657534 C90,0.924657534 91.1,1.13013699 92.3,1.43835616 C93.5,1.74657534 94.5,2.26027397 95.5,2.87671233 C95.8,3.08219178 96.1,3.28767123 96.4,3.49315068 C96.7,3.69863014 97,4.00684932 97.2,4.21232877 C97.5,4.41780822 97.7,4.7260274 97.8,4.93150685 C98,5.1369863 98,5.34246575 98,5.54794521 C98,5.75342466 98,5.85616438 97.9,6.06164384 C97.8,6.16438356 97.7,6.36986301 97.6,6.47260274 L97,7.0890411 C96.8,7.29452055 96.6,7.5 96.4,7.70547945 C96.2,7.9109589 96,8.11643836 95.8,8.32191781 C95.6,8.52739726 95.4,8.63013699 95.3,8.73287671 C95.1,8.73287671 95,8.83561644 94.9,8.83561644 L94.9,8.83561644 Z" id="Shape"></path>
                            <path d="M102.9,2.26027397 C102.9,1.64383562 103.2,1.33561644 103.7,1.33561644 L121.4,1.33561644 C121.7,1.33561644 121.9,1.43835616 122.1,1.64383562 C122.2,1.84931507 122.3,2.05479452 122.3,2.3630137 L122.3,5.65068493 C122.3,5.85616438 122.2,6.06164384 122.1,6.26712329 C121.9,6.47260274 121.7,6.57534247 121.4,6.57534247 L108.3,6.57534247 L108.3,12.3287671 L118.4,12.3287671 C118.6,12.3287671 118.8,12.3287671 119,12.5342466 C119.1,12.6369863 119.2,12.8424658 119.2,13.2534247 L119.2,16.6438356 C119.2,16.8493151 119.1,17.0547945 119,17.260274 C118.9,17.4657534 118.7,17.5684932 118.4,17.5684932 L108.3,17.5684932 L108.3,24.4520548 L121.8,24.4520548 C122.1,24.4520548 122.4,24.5547945 122.5,24.6575342 C122.6,24.760274 122.7,25.0684932 122.7,25.3767123 L122.7,28.7671233 C122.7,29.2808219 122.4,29.5890411 121.9,29.5890411 L103.7,29.5890411 C103.5,29.5890411 103.3,29.4863014 103.1,29.3835616 C102.9,29.2808219 102.9,29.0753425 102.9,28.7671233 L102.9,2.26027397 L102.9,2.26027397 Z" id="Shape"></path>
                        </g>
                    </g>
                </g>
            </g>
        </g>
    </g>
</svg>