<?xml version="1.0" encoding="UTF-8" standalone="no"?>
<svg width="201px" height="142px" viewBox="0 0 201 142" version="1.1" xmlns="http://www.w3.org/2000/svg" xmlns:xlink="http://www.w3.org/1999/xlink" xmlns:sketch="http://www.bohemiancoding.com/sketch/ns">
    <!-- Generator: Sketch 3.3.2 (12043) - http://www.bohemiancoding.com/sketch -->
    <title>money</title>
    <desc>Created with Sketch.</desc>
    <defs></defs>
    <g id="Page-1" stroke="none" stroke-width="1" fill="none" fill-rule="evenodd" sketch:type="MSPage">
        <g id="setak-web2-3" sketch:type="MSLayerGroup" transform="translate(-605.000000, -911.000000)" stroke-width="6" stroke="#FFFFFF" fill="#ED174C">
            <g id="Group" sketch:type="MSShapeGroup">
                <g transform="translate(1.000000, 843.000000)" id="money">
                    <g transform="translate(607.000000, 71.000000)">
                        <rect id="Rectangle-path" x="0.4" y="29.2" width="126.2" height="60.7"></rect>
                        <g id="Group" transform="translate(100.000000, 0.000000)">
                            <path d="M0.4,83.8 L0.4,97.6 C0.4,105.7 12.5,112.3 27.3,112.3 C42.2,112.3 54.2,105.7 54.2,97.6 L54.2,83.8 L0.4,83.8 L0.4,83.8 Z" id="Shape"></path>
                            <path d="M0.4,70.1 L0.4,83.9 C0.4,92 12.5,98.6 27.3,98.6 C42.2,98.6 54.2,92 54.2,83.9 L54.2,70.1 L0.4,70.1 L0.4,70.1 Z" id="Shape"></path>
                            <path d="M0.4,56.3 L0.4,70 C0.4,78.1 12.5,84.7 27.3,84.7 C42.2,84.7 54.2,78.1 54.2,70 L54.2,56.2 L0.4,56.2 L0.4,56.3 Z" id="Shape"></path>
                            <path d="M0.4,42.5 L0.4,56.3 C0.4,64.4 12.5,71 27.3,71 C42.2,71 54.2,64.4 54.2,56.3 L54.2,42.5 L0.4,42.5 L0.4,42.5 Z" id="Shape"></path>
                            <path d="M0.4,28.7 L0.4,42.5 C0.4,50.6 12.5,57.2 27.3,57.2 C42.2,57.2 54.2,50.6 54.2,42.5 L54.2,28.7 L0.4,28.7 L0.4,28.7 Z" id="Shape"></path>
                            <path d="M0.4,15 L0.4,28.8 C0.4,36.9 12.5,43.5 27.3,43.5 C42.2,43.5 54.2,36.9 54.2,28.8 L54.2,15 L0.4,15 L0.4,15 Z" id="Shape"></path>
                            <ellipse id="Oval" cx="27.4" cy="15" rx="26.9" ry="14.7"></ellipse>
                        </g>
                        <g id="Group" transform="translate(141.000000, 50.000000)">
                            <path d="M0.2,57.4 L0.2,71.2 C0.2,79.3 12.3,85.9 27.1,85.9 C42,85.9 54,79.3 54,71.2 L54,57.4 L0.2,57.4 L0.2,57.4 Z" id="Shape"></path>
                            <path d="M0.2,43.1 L0.2,56.9 C0.2,65 12.3,71.6 27.1,71.6 C42,71.6 54,65 54,56.9 L54,43.1 L0.2,43.1 L0.2,43.1 Z" id="Shape"></path>
                            <path d="M0.2,28.9 L0.2,42.7 C0.2,50.8 12.3,57.4 27.1,57.4 C42,57.4 54,50.8 54,42.7 L54,28.9 L0.2,28.9 L0.2,28.9 Z" id="Shape"></path>
                            <path d="M0.2,14.7 L0.2,28.5 C0.2,36.6 12.3,43.2 27.1,43.2 C42,43.2 54,36.6 54,28.5 L54,14.7 L0.2,14.7 L0.2,14.7 Z" id="Shape"></path>
                            <ellipse id="Oval" cx="27.1" cy="14.7" rx="26.9" ry="14.7"></ellipse>
                        </g>
                    </g>
                </g>
            </g>
        </g>
    </g>
</svg>