<?xml version="1.0" encoding="UTF-8" standalone="no"?>
<svg width="274px" height="60px" viewBox="0 0 274 60" version="1.1" xmlns="http://www.w3.org/2000/svg" xmlns:xlink="http://www.w3.org/1999/xlink" xmlns:sketch="http://www.bohemiancoding.com/sketch/ns">
    <!-- Generator: Sketch 3.3.2 (12043) - http://www.bohemiancoding.com/sketch -->
    <title>Branding Logo</title>
    <desc>Created with Sketch.</desc>
    <defs></defs>
    <g id="Page-1" stroke="none" stroke-width="1" fill="none" fill-rule="evenodd" sketch:type="MSPage">
        <g id="setak-web2-3" sketch:type="MSLayerGroup" transform="translate(-181.000000, -23.000000)" fill="#FFFFFF">
            <g id="Group" sketch:type="MSShapeGroup">
                <g id="Branding-Logo" transform="translate(181.000000, 23.000000)">
                    <g id="Group">
                        <path d="M67,42.9 C62.5,38.9 40.2,19.6 36.7,16.5 L36.7,14 C36.7,13.5 37.3,13 38.2,12.2 C39.5,11.1 41.3,9.5 41.3,6.7 C41.3,3.4 38.6,0.7 35.3,0.7 C32,0.7 29.3,3.4 29.3,6.7 C29.3,7.5 29.9,8.1 30.7,8.1 C31.5,8.1 32.1,7.5 32.1,6.7 C32.1,4.9 33.5,3.5 35.3,3.5 C37.1,3.5 38.5,4.9 38.5,6.7 C38.5,8.3 37.5,9.1 36.4,10.1 C35.3,11.1 33.9,12.2 33.9,14 L33.9,16.5 C30.4,19.6 8.1,38.9 3.6,42.9 C0.4,45.7 -0.7,49.7 0.8,53.3 C2.2,56.9 5.5,59.4 9,59.4 L61.8,59.4 C65.2,59.4 68.6,56.9 70,53.3 C71.3,49.7 70.2,45.7 67,42.9 L67,42.9 Z M67.3,52.3 C66.3,54.8 64,56.6 61.8,56.6 L9,56.6 C6.8,56.6 4.4,54.8 3.5,52.3 C2.9,50.8 2.4,47.8 5.6,45 C9.9,41.1 30.8,23.1 35.4,19 C40.1,23 60.9,41.1 65.2,45 C68.3,47.8 67.8,50.8 67.3,52.3 L67.3,52.3 Z" id="Shape"></path>
                        <path d="M62.6,46.7 C62.2,46.4 61.7,45.9 60.8,45.1 C59.3,43.8 57,41.6 53.2,38.3 C49.3,35.3 39.8,37 33.3,35.4 C28,34.1 30.5,29.7 35.6,29.7 C38.7,29.7 41.2,30.3 42.1,32.1 C42.4,32.6 42.9,33.1 44,33.1 L47.3,33.1 C44.2,30.4 40,26.6 35.6,23 C29,28.5 23.1,33.8 19.2,37.2 C20.1,39.2 23.4,41.6 25.4,42.3 C29.4,43.8 33.7,44.4 37.8,44.6 C41,44.8 44.6,44.5 47.7,45.4 C48.8,45.7 50,46.8 49.7,48.1 C49.1,51.2 42.6,51.7 34,51.7 C25.5,51.7 15.6,50.5 15,43.4 C14.9,42 14,41.8 13.5,42.3 C12.2,43.5 11.2,44.4 10.4,45.1 C9.6,45.9 9,46.4 8.6,46.7 C7.1,48 6.3,49.5 6.8,51 C7.4,52.4 9,53.5 10.4,53.5 L60.5,53.5 C61.7,53.5 63.4,52.6 64,51.1 C64.8,49.6 64.1,48 62.6,46.7 L62.6,46.7 Z" id="Shape"></path>
                    </g>
                    <g id="Group" transform="translate(81.000000, 27.000000)">
                        <path d="M16.8,4.7 C17.1,3.9 17.4,3 17.4,2.5 C17.3,1.3 16.3,0.8 15.4,0.8 L12.5,0.8 L10.8,5.3 L0.8,30.6 L6.7,30.6 L10.3,21.2 L13.4,30.6 L18.4,30.6 L13.2,13.8 C13.2,13.7 16.3,6 16.8,4.7 L16.8,4.7 Z" id="Shape"></path>
                        <path d="M24.9,0.7 L24.4,2.7 L22.3,14.5 L17.9,14.5 L17.4,17.6 L21.7,17.6 L19.5,30.5 L22.6,30.5 C23.2,30.5 23.7,30.4 24.1,30.1 C24.5,29.9 24.8,29.6 25,29.3 C25.2,29 25.4,28.6 25.5,28.1 L30.3,0.6 L24.9,0.6 L24.9,0.7 Z" id="Shape"></path>
                        <path d="M33,1.7 L27.9,30.5 L31.1,30.5 C31.7,30.5 32.2,30.4 32.6,30.1 C33,29.9 33.3,29.6 33.5,29.3 C33.7,29 33.9,28.6 34,28.1 L38.8,0.6 L33.3,0.5 L33,1.7 L33,1.7 Z" id="Shape"></path>
                        <path d="M75.5,0.7 L70,0.7 L66.9,17.6 L70,17.6 C70.6,17.6 71.1,17.5 71.5,17.2 C71.9,17 72.2,16.7 72.4,16.4 L73.1,13 L77.3,13 L77.9,9.5 L73.9,9.5 C73.9,9.6 75.5,0.7 75.5,0.7 L75.5,0.7 Z" id="Shape"></path>
                        <path d="M40.3,20.8 L40,22.1 L66.2,22.1 L64.7,30.5 L68.3,30.5 C68.7,30.5 69,30.4 69.3,30.2 C69.6,30.1 69.8,29.9 70.1,29.6 C70.3,29.3 70.5,28.9 70.6,28.4 C70.6,28.2 70.7,27.8 70.8,27.4 C70.9,27 70.9,26.6 71,26.1 C71.1,25.6 71.2,25.2 71.3,24.6 C71.4,24.1 71.5,23.6 71.6,23.1 C71.8,21.9 72,20.7 72.3,19.4 L42.5,19.4 C40.7,19.5 40.3,20.8 40.3,20.8 L40.3,20.8 Z" id="Shape"></path>
                        <path d="M44.7,17.4 L62.3,17.4 L62.5,16.4 L62.8,14.8 L47.4,14.8 L48.3,9.5 L63.2,9.5 L63.5,7.6 L48.6,7.6 L49.5,2.8 L63.9,2.8 L64.3,0.8 L43.7,0.7 C43.7,0.7 41.8,10.5 41.5,13.1 C40.9,15.7 42.6,17.3 44.7,17.4 L44.7,17.4 Z" id="Shape"></path>
                        <path d="M107.4,5.2 L107.5,4.6 L84.4,4.6 L84.3,5.3 L84,6.5 L83.7,7.8 L88.3,7.8 C88.1,7.9 87.9,8 87.7,8.2 C86.8,8.9 85.9,9.6 85.1,10.4 C84.3,11.2 83.7,12.1 83.2,13.1 C82.7,14.1 82.3,15.1 82.1,16.2 C82,16.7 81.9,17.1 81.9,17.3 C81.8,17.6 81.8,17.8 81.7,18.1 C81.6,18.3 81.6,18.6 81.5,18.9 C81.4,19.2 81.4,19.6 81.3,20.1 C81,21.6 81.1,22.9 81.4,24.2 C81.8,25.5 82.4,26.6 83.2,27.6 C84.1,28.6 85.1,29.3 86.4,29.9 C87.7,30.5 89.1,30.7 90.7,30.7 C92.3,30.7 93.8,30.4 95.4,29.9 C96.9,29.3 98.3,28.6 99.5,27.6 C100.7,26.6 101.8,25.5 102.6,24.2 C103.4,22.9 104,21.5 104.3,20.1 C104.4,19.6 104.5,19.2 104.5,18.9 C104.6,18.6 104.6,18.3 104.7,18.1 C104.8,17.9 104.8,17.6 104.9,17.3 C105,17 105,16.6 105.1,16.2 C105.3,15.1 105.3,14.1 105.2,13.1 C105.1,12.1 104.8,11.2 104.3,10.4 C103.9,9.6 103.3,8.8 102.6,8.2 C102.5,8.1 102.3,7.9 102.1,7.8 L103.9,7.8 C106.5,7.7 107.2,6.2 107.4,5.2 L107.4,5.2 Z M99.7,23 C99.6,23.5 99.4,24.1 99.2,24.5 C98.9,25 98.6,25.4 98.1,25.8 C97.6,26.2 97.1,26.4 96.5,26.6 C95.9,26.7 95.3,26.8 94.7,26.7 C94.1,26.6 93.6,26.5 93.1,26.2 C92.6,25.9 92.2,25.6 91.8,25.1 C91.4,24.7 91.2,24.1 91,23.6 C91,23.6 90.9,23.3 90.7,22.8 C90.5,22.3 90.3,21.7 90.1,21 C89.9,20.3 89.6,19.5 89.3,18.6 C89,17.8 88.8,17 88.5,16.2 C88.3,15.5 88.1,14.8 87.9,14.3 C87.7,13.8 87.7,13.5 87.6,13.5 C87.4,13 87.4,12.4 87.5,11.8 C87.6,11.2 87.7,10.7 88,10.3 C88.3,9.8 88.6,9.4 89.1,9.1 C89.5,8.7 90,8.5 90.6,8.3 C91.2,8.1 91.8,8.1 92.4,8.2 C93,8.3 93.5,8.4 94,8.7 C94.5,8.9 94.9,9.3 95.3,9.7 C95.7,10.1 95.9,10.6 96.1,11.1 C96.1,11.2 96.2,11.5 96.4,12 C96.6,12.5 96.8,13.1 97,13.9 C97.2,14.6 97.5,15.4 97.8,16.3 C98.1,17.2 98.3,17.9 98.5,18.7 C98.7,19.4 98.9,20.1 99.1,20.6 C99.3,21.1 99.3,21.4 99.4,21.4 C99.7,21.9 99.8,22.5 99.7,23 L99.7,23 Z" id="Shape"></path>
                        <path d="M105.5,0.7 L87.9,0.7 L87.4,3.1 L105,3.1 L105.5,0.7 Z" id="Shape"></path>
                        <path d="M107.2,30.5 L110.3,30.5 C110.9,30.5 111.4,30.4 111.8,30.1 C112.2,29.9 112.5,29.6 112.7,29.3 C112.9,29 113.1,28.6 113.2,28.1 L118,0.6 L112.4,0.6 L107.2,30.5 L107.2,30.5 Z" id="Shape"></path>
                        <path d="M149.1,0.7 L146.6,14.6 L142.5,14.6 C142.6,14.2 142.6,13.8 142.7,13.4 C142.8,12.7 142.9,12.1 143.1,11.6 C143.4,10.1 143.4,8.7 143,7.3 C142.6,6 142,4.8 141.2,3.8 C140.3,2.8 139.3,2 138,1.5 C136.7,0.9 135.3,0.6 133.7,0.6 C132.1,0.6 130.6,0.9 129.1,1.5 C127.6,2.1 126.2,2.9 125,3.8 C123.8,4.8 122.7,6 121.9,7.3 C121.1,8.6 120.5,10.1 120.2,11.6 C120.1,12.1 120,12.7 119.9,13.4 C119.8,14.1 119.6,14.8 119.5,15.6 C119.4,16.3 119.2,17.1 119.1,17.8 C119,18.5 118.9,19.1 118.7,19.6 C118.4,21.1 118.5,22.5 118.8,23.8 C119.2,25.1 119.8,26.3 120.6,27.3 C121.5,28.3 122.5,29.1 123.8,29.6 C125.1,30.2 126.5,30.5 128.1,30.5 C129.7,30.5 131.2,30.2 132.7,29.6 C134.2,29 135.6,28.2 136.8,27.3 C138,26.3 139.1,25.2 139.9,23.8 C140.7,22.5 141.3,21.1 141.6,19.6 C141.7,19.1 141.8,18.5 142,17.8 L142,17.6 L146.1,17.6 L143.8,30.5 L147,30.5 C147.6,30.5 148.1,30.4 148.5,30.1 C148.9,29.9 149.2,29.6 149.4,29.3 C149.6,29 149.8,28.6 149.9,28.1 L154.7,0.6 L149.1,0.6 L149.1,0.7 Z M137.8,22.1 C137.7,22.8 137.5,23.4 137.1,23.9 C136.8,24.5 136.3,24.9 135.8,25.4 C135.3,25.8 134.6,26.1 133.9,26.3 C133.2,26.5 132.5,26.6 131.8,26.5 C131.1,26.4 130.5,26.2 129.9,25.9 C129.3,25.6 128.8,25.2 128.4,24.7 C128,24.2 127.7,23.6 127.5,22.9 C127.5,22.9 127.4,22.5 127.2,21.9 C127,21.3 126.8,20.5 126.6,19.7 C126.4,18.8 126.1,17.8 125.9,16.8 C125.6,15.8 125.4,14.8 125.2,13.9 C125,13 124.8,12.3 124.6,11.7 C124.4,11.1 124.3,10.7 124.3,10.7 C124.1,10.1 124.1,9.4 124.2,8.7 C124.3,8 124.6,7.4 124.9,6.9 C125.3,6.3 125.7,5.9 126.3,5.4 C126.9,5 127.5,4.7 128.2,4.5 C128.9,4.3 129.6,4.3 130.2,4.4 C130.9,4.5 131.5,4.7 132.1,5 C132.7,5.3 133.2,5.7 133.6,6.2 C134,6.7 134.3,7.3 134.4,8 C134.4,8.1 134.5,8.4 134.7,9 C134.9,9.6 135.1,10.4 135.3,11.2 C135.5,12.1 135.8,13 136,14.1 C136.3,15.1 136.5,16.1 136.7,17 C136.9,17.9 137.1,18.6 137.3,19.2 C137.5,19.8 137.5,20.1 137.6,20.2 C137.9,20.7 137.9,21.4 137.8,22.1 L137.8,22.1 Z" id="Shape"></path>
                        <path d="M191.2,7.8 L192.4,0.7 L160.8,0.7 L160.2,3.1 L186.4,3.1 L185.6,7.4 L159.4,7.4 C159.4,7.4 158,14.3 157.8,15.9 C157.5,18.1 158.4,19.1 161.2,19.1 L166,19.1 L186.2,19.1 L186.3,19.1 C188.8,19.1 189.4,17.6 189.6,16.6 L189.7,16 L164.5,16 L165.6,10.1 L186.7,10.1 L188.2,10.1 C188.8,10.1 189.3,10 189.7,9.7 C190.1,9.5 190.4,9.2 190.6,8.9 C190.9,8.7 191.1,8.3 191.2,7.8 L191,7.9 L191.2,7.8 L191.2,7.8 Z" id="Shape"></path>
                        <path d="M192.2,26.9 L192.2,26.9 L174.7,26.9 L175.8,20.7 L170,20.7 L168.9,26.9 L154.9,26.9 L154.4,30 L188.8,30 C191.3,30 191.9,28.5 192.1,27.5 L192.2,26.9 L192.2,26.9 Z" id="Shape"></path>
                    </g>
                </g>
            </g>
        </g>
    </g>
</svg>