<?xml version="1.0" encoding="UTF-8" standalone="no"?>
<svg width="308px" height="68px" viewBox="0 0 308 68" version="1.1" xmlns="http://www.w3.org/2000/svg" xmlns:xlink="http://www.w3.org/1999/xlink" xmlns:sketch="http://www.bohemiancoding.com/sketch/ns">
    <!-- Generator: Sketch 3.3.2 (12043) - http://www.bohemiancoding.com/sketch -->
    <title>Branding Logo Copy</title>
    <desc>Created with Sketch.</desc>
    <defs></defs>
    <g id="Page-1" stroke="none" stroke-width="1" fill="none" fill-rule="evenodd" sketch:type="MSPage">
        <g id="setak-web2-3" sketch:type="MSLayerGroup" transform="translate(-562.000000, -636.000000)">
            <g id="Group" sketch:type="MSShapeGroup">
                <g id="Branding-Logo-Copy" transform="translate(562.000000, 636.000000)">
                    <g id="Group">
                        <path d="M75.3138686,48.62 C70.2554745,44.0866667 45.1883212,22.2133333 41.2540146,18.7 L41.2540146,15.8666667 C41.2540146,15.3 41.9284672,14.7333333 42.940146,13.8266667 C44.4014599,12.58 46.4248175,10.7666667 46.4248175,7.59333333 C46.4248175,3.85333333 43.389781,0.793333333 39.680292,0.793333333 C35.9708029,0.793333333 32.9357664,3.85333333 32.9357664,7.59333333 C32.9357664,8.5 33.610219,9.18 34.5094891,9.18 C35.4087591,9.18 36.0832117,8.5 36.0832117,7.59333333 C36.0832117,5.55333333 37.6569343,3.96666667 39.680292,3.96666667 C41.7036496,3.96666667 43.2773723,5.55333333 43.2773723,7.59333333 C43.2773723,9.40666667 42.1532847,10.3133333 40.9167883,11.4466667 C39.680292,12.58 38.1065693,13.8266667 38.1065693,15.8666667 L38.1065693,18.7 C34.1722628,22.2133333 9.10510949,44.0866667 4.04671533,48.62 C0.449635036,51.7933333 -0.786861314,56.3266667 0.899270073,60.4066667 C2.4729927,64.4866667 6.18248175,67.32 10.1167883,67.32 L69.4686131,67.32 C73.2905109,67.32 77.1124088,64.4866667 78.6861314,60.4066667 C80.1474453,56.3266667 78.9109489,51.7933333 75.3138686,48.62 L75.3138686,48.62 Z M75.6510949,59.2733333 C74.5270073,62.1066667 71.9416058,64.1466667 69.4686131,64.1466667 L10.1167883,64.1466667 C7.64379562,64.1466667 4.9459854,62.1066667 3.93430657,59.2733333 C3.25985401,57.5733333 2.69781022,54.1733333 6.29489051,51 C11.1284672,46.58 34.6218978,26.18 39.7927007,21.5333333 C45.0759124,26.0666667 68.4569343,46.58 73.2905109,51 C76.7751825,54.1733333 76.2131387,57.5733333 75.6510949,59.2733333 L75.6510949,59.2733333 Z" id="Shape" fill="#EA174C"></path>
                        <path d="M70.3678832,52.9266667 C69.9182482,52.5866667 69.3562044,52.02 68.3445255,51.1133333 C66.6583942,49.64 64.0729927,47.1466667 59.8014599,43.4066667 C55.4175182,40.0066667 44.7386861,41.9333333 37.4321168,40.12 C31.4744526,38.6466667 34.2846715,33.66 40.0175182,33.66 C43.5021898,33.66 46.3124088,34.34 47.3240876,36.38 C47.6613139,36.9466667 48.2233577,37.5133333 49.459854,37.5133333 L53.1693431,37.5133333 C49.6846715,34.4533333 44.9635036,30.1466667 40.0175182,26.0666667 C32.5985401,32.3 25.9664234,38.3066667 21.5824818,42.16 C22.5941606,44.4266667 26.3036496,47.1466667 28.5518248,47.94 C33.0481752,49.64 37.8817518,50.32 42.4905109,50.5466667 C46.0875912,50.7733333 50.1343066,50.4333333 53.6189781,51.4533333 C54.8554745,51.7933333 56.2043796,53.04 55.8671533,54.5133333 C55.1927007,58.0266667 47.8861314,58.5933333 38.2189781,58.5933333 C28.6642336,58.5933333 17.5357664,57.2333333 16.8613139,49.1866667 C16.7489051,47.6 15.7372263,47.3733333 15.1751825,47.94 C13.7138686,49.3 12.589781,50.32 11.6905109,51.1133333 C10.7912409,52.02 10.1167883,52.5866667 9.66715328,52.9266667 C7.9810219,54.4 7.08175182,56.1 7.64379562,57.8 C8.31824818,59.3866667 10.1167883,60.6333333 11.6905109,60.6333333 L68.0072993,60.6333333 C69.3562044,60.6333333 71.2671533,59.6133333 71.9416058,57.9133333 C72.8408759,56.2133333 72.0540146,54.4 70.3678832,52.9266667 L70.3678832,52.9266667 Z" id="Shape" fill="#EF174C"></path>
                    </g>
                    <g id="Group" transform="translate(91.051095, 30.600000)" fill="#EA174C">
                        <path d="M18.8846715,5.32666667 C19.2218978,4.42 19.5591241,3.4 19.5591241,2.83333333 C19.4467153,1.47333333 18.3226277,0.906666667 17.3109489,0.906666667 L14.0510949,0.906666667 L12.140146,6.00666667 L0.899270073,34.68 L7.53138686,34.68 L11.5781022,24.0266667 L15.0627737,34.68 L20.6832117,34.68 L14.8379562,15.64 C14.8379562,15.5266667 18.3226277,6.8 18.8846715,5.32666667 L18.8846715,5.32666667 Z" id="Shape"></path>
                        <path d="M27.989781,0.793333333 L27.4277372,3.06 L25.0671533,16.4333333 L20.1211679,16.4333333 L19.5591241,19.9466667 L24.3927007,19.9466667 L21.919708,34.5666667 L25.4043796,34.5666667 C26.0788321,34.5666667 26.6408759,34.4533333 27.0905109,34.1133333 C27.540146,33.8866667 27.8773723,33.5466667 28.1021898,33.2066667 C28.3270073,32.8666667 28.5518248,32.4133333 28.6642336,31.8466667 L34.059854,0.68 L27.989781,0.68 L27.989781,0.793333333 Z" id="Shape"></path>
                        <path d="M37.0948905,1.92666667 L31.3620438,34.5666667 L34.9591241,34.5666667 C35.6335766,34.5666667 36.1956204,34.4533333 36.6452555,34.1133333 C37.0948905,33.8866667 37.4321168,33.5466667 37.6569343,33.2066667 C37.8817518,32.8666667 38.1065693,32.4133333 38.2189781,31.8466667 L43.6145985,0.68 L37.4321168,0.566666667 L37.0948905,1.92666667 L37.0948905,1.92666667 Z" id="Shape"></path>
                        <path d="M84.8686131,0.793333333 L78.6861314,0.793333333 L75.2014599,19.9466667 L78.6861314,19.9466667 C79.3605839,19.9466667 79.9226277,19.8333333 80.3722628,19.4933333 C80.8218978,19.2666667 81.1591241,18.9266667 81.3839416,18.5866667 L82.1708029,14.7333333 L86.8919708,14.7333333 L87.5664234,10.7666667 L83.070073,10.7666667 C83.070073,10.88 84.8686131,0.793333333 84.8686131,0.793333333 L84.8686131,0.793333333 Z" id="Shape"></path>
                        <path d="M45.3007299,23.5733333 L44.9635036,25.0466667 L74.4145985,25.0466667 L72.7284672,34.5666667 L76.7751825,34.5666667 C77.2248175,34.5666667 77.5620438,34.4533333 77.8992701,34.2266667 C78.2364964,34.1133333 78.4613139,33.8866667 78.7985401,33.5466667 C79.0233577,33.2066667 79.2481752,32.7533333 79.3605839,32.1866667 C79.3605839,31.96 79.4729927,31.5066667 79.5854015,31.0533333 C79.6978102,30.6 79.6978102,30.1466667 79.810219,29.58 C79.9226277,29.0133333 80.0350365,28.56 80.1474453,27.88 C80.259854,27.3133333 80.3722628,26.7466667 80.4846715,26.18 C80.7094891,24.82 80.9343066,23.46 81.2715328,21.9866667 L47.7737226,21.9866667 C45.750365,22.1 45.3007299,23.5733333 45.3007299,23.5733333 L45.3007299,23.5733333 Z" id="Shape"></path>
                        <path d="M50.2467153,19.72 L70.0306569,19.72 L70.2554745,18.5866667 L70.5927007,16.7733333 L53.2817518,16.7733333 L54.2934307,10.7666667 L71.0423358,10.7666667 L71.379562,8.61333333 L54.6306569,8.61333333 L55.6423358,3.17333333 L71.8291971,3.17333333 L72.2788321,0.906666667 L49.1226277,0.793333333 C49.1226277,0.793333333 46.9868613,11.9 46.649635,14.8466667 C45.9751825,17.7933333 47.8861314,19.6066667 50.2467153,19.72 L50.2467153,19.72 Z" id="Shape"></path>
                        <path d="M120.727007,5.89333333 L120.839416,5.21333333 L94.8729927,5.21333333 L94.7605839,6.00666667 L94.4233577,7.36666667 L94.0861314,8.84 L99.2569343,8.84 C99.0321168,8.95333333 98.8072993,9.06666667 98.5824818,9.29333333 C97.5708029,10.0866667 96.5591241,10.88 95.659854,11.7866667 C94.7605839,12.6933333 94.0861314,13.7133333 93.5240876,14.8466667 C92.9620438,15.98 92.5124088,17.1133333 92.2875912,18.36 C92.1751825,18.9266667 92.0627737,19.38 92.0627737,19.6066667 C91.950365,19.9466667 91.950365,20.1733333 91.8379562,20.5133333 C91.7255474,20.74 91.7255474,21.08 91.6131387,21.42 C91.5007299,21.76 91.5007299,22.2133333 91.3883212,22.78 C91.0510949,24.48 91.1635036,25.9533333 91.5007299,27.4266667 C91.950365,28.9 92.6248175,30.1466667 93.5240876,31.28 C94.5357664,32.4133333 95.659854,33.2066667 97.1211679,33.8866667 C98.5824818,34.5666667 100.156204,34.7933333 101.954745,34.7933333 C103.753285,34.7933333 105.439416,34.4533333 107.237956,33.8866667 C108.924088,33.2066667 110.49781,32.4133333 111.846715,31.28 C113.19562,30.1466667 114.432117,28.9 115.331387,27.4266667 C116.230657,25.9533333 116.905109,24.3666667 117.242336,22.78 C117.354745,22.2133333 117.467153,21.76 117.467153,21.42 C117.579562,21.08 117.579562,20.74 117.691971,20.5133333 C117.80438,20.2866667 117.80438,19.9466667 117.916788,19.6066667 C118.029197,19.2666667 118.029197,18.8133333 118.141606,18.36 C118.366423,17.1133333 118.366423,15.98 118.254015,14.8466667 C118.141606,13.7133333 117.80438,12.6933333 117.242336,11.7866667 C116.792701,10.88 116.118248,9.97333333 115.331387,9.29333333 C115.218978,9.18 114.994161,8.95333333 114.769343,8.84 L116.792701,8.84 C119.715328,8.72666667 120.50219,7.02666667 120.727007,5.89333333 L120.727007,5.89333333 Z M112.071533,26.0666667 C111.959124,26.6333333 111.734307,27.3133333 111.509489,27.7666667 C111.172263,28.3333333 110.835036,28.7866667 110.272993,29.24 C109.710949,29.6933333 109.148905,29.92 108.474453,30.1466667 C107.8,30.26 107.125547,30.3733333 106.451095,30.26 C105.776642,30.1466667 105.214599,30.0333333 104.652555,29.6933333 C104.090511,29.3533333 103.640876,29.0133333 103.191241,28.4466667 C102.741606,27.9933333 102.516788,27.3133333 102.291971,26.7466667 C102.291971,26.7466667 102.179562,26.4066667 101.954745,25.84 C101.729927,25.2733333 101.505109,24.5933333 101.280292,23.8 C101.055474,23.0066667 100.718248,22.1 100.381022,21.08 C100.043796,20.1733333 99.8189781,19.2666667 99.4817518,18.36 C99.2569343,17.5666667 99.0321168,16.7733333 98.8072993,16.2066667 C98.5824818,15.64 98.5824818,15.3 98.470073,15.3 C98.2452555,14.7333333 98.2452555,14.0533333 98.3576642,13.3733333 C98.470073,12.6933333 98.5824818,12.1266667 98.919708,11.6733333 C99.2569343,11.1066667 99.5941606,10.6533333 100.156204,10.3133333 C100.605839,9.86 101.167883,9.63333333 101.842336,9.40666667 C102.516788,9.18 103.191241,9.18 103.865693,9.29333333 C104.540146,9.40666667 105.10219,9.52 105.664234,9.86 C106.226277,10.0866667 106.675912,10.54 107.125547,10.9933333 C107.575182,11.4466667 107.8,12.0133333 108.024818,12.58 C108.024818,12.6933333 108.137226,13.0333333 108.362044,13.6 C108.586861,14.1666667 108.811679,14.8466667 109.036496,15.7533333 C109.261314,16.5466667 109.59854,17.4533333 109.935766,18.4733333 C110.272993,19.4933333 110.49781,20.2866667 110.722628,21.1933333 C110.947445,21.9866667 111.172263,22.78 111.39708,23.3466667 C111.621898,23.9133333 111.621898,24.2533333 111.734307,24.2533333 C112.071533,24.82 112.183942,25.5 112.071533,26.0666667 L112.071533,26.0666667 Z" id="Shape"></path>
                        <path d="M118.591241,0.793333333 L98.8072993,0.793333333 L98.2452555,3.51333333 L118.029197,3.51333333 L118.591241,0.793333333 Z" id="Shape"></path>
                        <path d="M120.50219,34.5666667 L123.986861,34.5666667 C124.661314,34.5666667 125.223358,34.4533333 125.672993,34.1133333 C126.122628,33.8866667 126.459854,33.5466667 126.684672,33.2066667 C126.909489,32.8666667 127.134307,32.4133333 127.246715,31.8466667 L132.642336,0.68 L126.347445,0.68 L120.50219,34.5666667 L120.50219,34.5666667 Z" id="Shape"></path>
                        <path d="M167.60146,0.793333333 L164.791241,16.5466667 L160.182482,16.5466667 C160.294891,16.0933333 160.294891,15.64 160.407299,15.1866667 C160.519708,14.3933333 160.632117,13.7133333 160.856934,13.1466667 C161.194161,11.4466667 161.194161,9.86 160.744526,8.27333333 C160.294891,6.8 159.620438,5.44 158.721168,4.30666667 C157.709489,3.17333333 156.585401,2.26666667 155.124088,1.7 C153.662774,1.02 152.089051,0.68 150.290511,0.68 C148.491971,0.68 146.805839,1.02 145.119708,1.7 C143.433577,2.38 141.859854,3.28666667 140.510949,4.30666667 C139.162044,5.44 137.925547,6.8 137.026277,8.27333333 C136.127007,9.74666667 135.452555,11.4466667 135.115328,13.1466667 C135.00292,13.7133333 134.890511,14.3933333 134.778102,15.1866667 C134.665693,15.98 134.440876,16.7733333 134.328467,17.68 C134.216058,18.4733333 133.991241,19.38 133.878832,20.1733333 C133.766423,20.9666667 133.654015,21.6466667 133.429197,22.2133333 C133.091971,23.9133333 133.20438,25.5 133.541606,26.9733333 C133.991241,28.4466667 134.665693,29.8066667 135.564964,30.94 C136.576642,32.0733333 137.70073,32.98 139.162044,33.5466667 C140.623358,34.2266667 142.19708,34.5666667 143.99562,34.5666667 C145.794161,34.5666667 147.480292,34.2266667 149.166423,33.5466667 C150.852555,32.8666667 152.426277,31.96 153.775182,30.94 C155.124088,29.8066667 156.360584,28.56 157.259854,26.9733333 C158.159124,25.5 158.833577,23.9133333 159.170803,22.2133333 C159.283212,21.6466667 159.39562,20.9666667 159.620438,20.1733333 L159.620438,19.9466667 L164.229197,19.9466667 L161.643796,34.5666667 L165.240876,34.5666667 C165.915328,34.5666667 166.477372,34.4533333 166.927007,34.1133333 C167.376642,33.8866667 167.713869,33.5466667 167.938686,33.2066667 C168.163504,32.8666667 168.388321,32.4133333 168.50073,31.8466667 L173.89635,0.68 L167.60146,0.68 L167.60146,0.793333333 Z M154.89927,25.0466667 C154.786861,25.84 154.562044,26.52 154.112409,27.0866667 C153.775182,27.7666667 153.213139,28.22 152.651095,28.7866667 C152.089051,29.24 151.30219,29.58 150.515328,29.8066667 C149.728467,30.0333333 148.941606,30.1466667 148.154745,30.0333333 C147.367883,29.92 146.693431,29.6933333 146.018978,29.3533333 C145.344526,29.0133333 144.782482,28.56 144.332847,27.9933333 C143.883212,27.4266667 143.545985,26.7466667 143.321168,25.9533333 C143.321168,25.9533333 143.208759,25.5 142.983942,24.82 C142.759124,24.14 142.534307,23.2333333 142.309489,22.3266667 C142.084672,21.3066667 141.747445,20.1733333 141.522628,19.04 C141.185401,17.9066667 140.960584,16.7733333 140.735766,15.7533333 C140.510949,14.7333333 140.286131,13.94 140.061314,13.26 C139.836496,12.58 139.724088,12.1266667 139.724088,12.1266667 C139.49927,11.4466667 139.49927,10.6533333 139.611679,9.86 C139.724088,9.06666667 140.061314,8.38666667 140.39854,7.82 C140.848175,7.14 141.29781,6.68666667 141.972263,6.12 C142.646715,5.66666667 143.321168,5.32666667 144.108029,5.1 C144.894891,4.87333333 145.681752,4.87333333 146.356204,4.98666667 C147.143066,5.1 147.817518,5.32666667 148.491971,5.66666667 C149.166423,6.00666667 149.728467,6.46 150.178102,7.02666667 C150.627737,7.59333333 150.964964,8.27333333 151.077372,9.06666667 C151.077372,9.18 151.189781,9.52 151.414599,10.2 C151.639416,10.88 151.864234,11.7866667 152.089051,12.6933333 C152.313869,13.7133333 152.651095,14.7333333 152.875912,15.98 C153.213139,17.1133333 153.437956,18.2466667 153.662774,19.2666667 C153.887591,20.2866667 154.112409,21.08 154.337226,21.76 C154.562044,22.44 154.562044,22.78 154.674453,22.8933333 C155.011679,23.46 155.011679,24.2533333 154.89927,25.0466667 L154.89927,25.0466667 Z" id="Shape"></path>
                        <path d="M214.925547,8.84 L216.274453,0.793333333 L180.753285,0.793333333 L180.078832,3.51333333 L209.529927,3.51333333 L208.630657,8.38666667 L179.179562,8.38666667 C179.179562,8.38666667 177.605839,16.2066667 177.381022,18.02 C177.043796,20.5133333 178.055474,21.6466667 181.20292,21.6466667 L186.59854,21.6466667 L209.305109,21.6466667 L209.417518,21.6466667 C212.227737,21.6466667 212.90219,19.9466667 213.127007,18.8133333 L213.239416,18.1333333 L184.912409,18.1333333 L186.148905,11.4466667 L209.867153,11.4466667 L211.553285,11.4466667 C212.227737,11.4466667 212.789781,11.3333333 213.239416,10.9933333 C213.689051,10.7666667 214.026277,10.4266667 214.251095,10.0866667 C214.588321,9.86 214.813139,9.40666667 214.925547,8.84 L214.70073,8.95333333 L214.925547,8.84 L214.925547,8.84 Z" id="Shape"></path>
                        <path d="M216.049635,30.4866667 L216.049635,30.4866667 L196.378102,30.4866667 L197.614599,23.46 L191.094891,23.46 L189.858394,30.4866667 L174.121168,30.4866667 L173.559124,34 L212.227737,34 C215.037956,34 215.712409,32.3 215.937226,31.1666667 L216.049635,30.4866667 L216.049635,30.4866667 Z" id="Shape"></path>
                    </g>
                </g>
            </g>
        </g>
    </g>
</svg>